<?xml version="1.0" encoding="UTF-8" standalone="no"?>
<svg
   width="210mm"
   height="297mm"
   viewBox="0 0 210 297"
   version="1.1"
   id="svg1009"
   sodipodi:docname="cover.svg"
   inkscape:version="1.4 (e7c3feb100, 2024-10-09)"
   xml:space="preserve"
   xmlns:inkscape="http://www.inkscape.org/namespaces/inkscape"
   xmlns:sodipodi="http://sodipodi.sourceforge.net/DTD/sodipodi-0.dtd"
   xmlns="http://www.w3.org/2000/svg"
   xmlns:svg="http://www.w3.org/2000/svg"
   xmlns:rdf="http://www.w3.org/1999/02/22-rdf-syntax-ns#"
   xmlns:cc="http://creativecommons.org/ns#"
   xmlns:dc="http://purl.org/dc/elements/1.1/"><defs
     id="defs1003">
	
	
	
	
	
	
	
	
	
	
	
	
	
	
	
	
	
	
	
	
	
	
	
	
	
	
	
	
	
	
</defs><sodipodi:namedview
     id="base"
     pagecolor="#ffffff"
     bordercolor="#666666"
     borderopacity="1.0"
     inkscape:pageopacity="0.0"
     inkscape:pageshadow="2"
     inkscape:zoom="0.88805908"
     inkscape:cx="451.54653"
     inkscape:cy="796.68123"
     inkscape:document-units="mm"
     inkscape:current-layer="layer1"
     inkscape:document-rotation="0"
     showgrid="false"
     inkscape:window-width="2560"
     inkscape:window-height="995"
     inkscape:window-x="0"
     inkscape:window-y="0"
     inkscape:window-maximized="1"
     inkscape:showpageshadow="2"
     inkscape:pagecheckerboard="0"
     inkscape:deskcolor="#d1d1d1" /><metadata
     id="metadata1006"><rdf:RDF><cc:Work
         rdf:about=""><dc:format>image/svg+xml</dc:format><dc:type
           rdf:resource="http://purl.org/dc/dcmitype/StillImage" /></cc:Work></rdf:RDF></metadata><g
     inkscape:label="Layer 1"
     inkscape:groupmode="layer"
     id="layer1"><text
       xml:space="preserve"
       style="font-style:normal;font-weight:normal;font-size:4.59886px;line-height:1.25;font-family:sans-serif;fill:#4d4d4d;fill-opacity:1;stroke:none;stroke-width:0.114972"
       x="169.62233"
       y="245.38925"
       id="text1658"><tspan
         sodipodi:role="line"
         x="169.62233"
         y="245.38925"
         style="font-style:normal;font-variant:normal;font-weight:normal;font-stretch:normal;font-family:'Noto Sans CJK SC';-inkscape-font-specification:'Noto Sans CJK SC';fill:#4d4d4d;stroke-width:0.114972"
         id="tspan1">Quick</tspan><tspan
         sodipodi:role="line"
         x="169.62233"
         y="251.13837"
         style="font-style:normal;font-variant:normal;font-weight:normal;font-stretch:normal;font-family:'Noto Sans CJK SC';-inkscape-font-specification:'Noto Sans CJK SC';fill:#4d4d4d;stroke-width:0.114972"
         id="tspan6">Quality</tspan><tspan
         sodipodi:role="line"
         x="169.62233"
         y="256.88748"
         style="font-style:normal;font-variant:normal;font-weight:normal;font-stretch:normal;font-family:'Noto Sans CJK SC';-inkscape-font-specification:'Noto Sans CJK SC';fill:#4d4d4d;stroke-width:0.114972"
         id="tspan7">Quintessential</tspan><tspan
         sodipodi:role="line"
         x="169.62233"
         y="262.63605"
         style="font-style:normal;font-variant:normal;font-weight:normal;font-stretch:normal;font-family:'Noto Sans CJK SC';-inkscape-font-specification:'Noto Sans CJK SC';fill:#4d4d4d;stroke-width:0.114972"
         id="tspan3" /></text><rect
       style="opacity:1;fill:#4d4d4d;fill-opacity:1;stroke:#4d4d4d;stroke-width:0.214441;stroke-miterlimit:4;stroke-dasharray:none;stroke-opacity:1"
       id="rect1698"
       width="0.0075036972"
       height="19.529881"
       x="-166.96326"
       y="240.07402"
       transform="scale(-1,1)" /><text
       xml:space="preserve"
       style="font-style:normal;font-weight:normal;font-size:14.8539px;line-height:1.25;font-family:sans-serif;fill:#000000;fill-opacity:1;stroke:none;stroke-width:0.371349"
       x="12.759102"
       y="52.073627"
       id="text1658-7"><tspan
         sodipodi:role="line"
         id="tspan1656-3"
         x="12.759102"
         y="52.073627"
         style="font-style:normal;font-variant:normal;font-weight:normal;font-stretch:normal;font-family:'Noto Sans CJK SC';-inkscape-font-specification:'Noto Sans CJK SC';stroke-width:0.371349">QSoC User Manual</tspan></text><text
       xml:space="preserve"
       style="font-style:normal;font-weight:normal;font-size:6.98604px;line-height:1.25;font-family:sans-serif;fill:#666666;fill-opacity:1;stroke:none;stroke-width:0.174651"
       x="13.863506"
       y="64.567055"
       id="text1658-7-5"><tspan
         sodipodi:role="line"
         id="tspan1656-3-8"
         x="13.863506"
         y="64.567055"
         style="font-style:normal;font-variant:normal;font-weight:normal;font-stretch:normal;font-family:'Noto Sans CJK SC';-inkscape-font-specification:'Noto Sans CJK SC';fill:#666666;stroke-width:0.174651">Version 1.0.0</tspan></text><g
       id="g273"
       transform="matrix(0.06870931,0,0,0.06870931,95.630854,238.23706)">
	
	
	
	
	
	
	
	
	
	
	
	
	
	
	
	
	
	
	
	
	
	
	
	
	
	
	
	
	
	
<g
   id="g65"
   transform="matrix(0.95483514,0,0,0.95483514,90.352809,-278.09613)"
   style="fill:#1f9195;fill-opacity:1"><path
     d="m 176.16354,306.07912 v 45.34961 h -17.5664 c -19.11771,2e-5 -34.39063,15.27293 -34.39063,34.39063 v 17.56445 H 78.856903 v 9.26953 h 45.349607 v 44.28125 H 78.856903 v 9.26953 h 45.349607 v 44.28125 H 78.856903 v 9.26953 h 45.349607 v 17.56641 c 0,19.1177 15.27292,34.38867 34.39063,34.38867 h 17.5664 v 45.34961 h 9.26953 v -45.34961 h 44.2793 v 45.34961 h 9.27149 v -45.34961 h 44.27929 v 45.34961 h 9.27149 v -45.34961 h 17.5664 c 19.11771,0 34.39063,-15.27097 34.39063,-34.38867 V 519.7549 h 45.34765 v -9.26953 h -45.34765 v -44.28125 h 45.34765 v -9.26953 h -45.34765 v -44.28125 h 45.34765 v -9.26953 h -45.34765 v -17.56445 c 0,-19.1177 -15.27292,-34.39063 -34.39063,-34.39063 h -17.5664 v -45.34961 h -9.27149 v 45.34961 h -44.27929 v -45.34961 h -9.27149 v 45.34961 h -44.2793 v -45.34961 z"
     id="path316" /><path
     d="m 174.38425,298.51858 c -3.13649,0 -5.7793,2.64477 -5.7793,5.78125 v 39.56835 h -10.00781 c -23.17466,2e-5 -41.94922,18.77653 -41.94922,41.95118 v 10.0039 H 77.077606 c -3.136484,0 -5.779297,2.64476 -5.779297,5.78125 v 12.83008 c 0,3.13648 2.642813,5.7793 5.779297,5.7793 h 39.570314 v 29.16015 H 77.077606 c -3.136484,0 -5.779297,2.64477 -5.779297,5.78125 v 12.83008 c 0,3.13648 2.642813,5.7793 5.779297,5.7793 h 39.570314 v 29.16016 H 77.077606 c -3.136484,0 -5.779297,2.64477 -5.779297,5.78125 v 12.83007 c 0,3.13648 2.642813,5.7793 5.779297,5.7793 h 39.570314 v 10.00586 c 0,23.17465 18.77456,41.94922 41.94922,41.94922 h 10.00781 v 39.57031 c 0,3.13648 2.64281,5.7793 5.7793,5.7793 h 12.82812 c 3.13648,0 5.7793,-2.64282 5.7793,-5.7793 v -39.57031 h 29.16211 v 39.57031 c 0,3.13648 2.64281,5.7793 5.77929,5.7793 h 12.83008 c 3.13649,0 5.7793,-2.64282 5.7793,-5.7793 v -39.57031 h 29.16211 v 39.57031 c 0,3.13648 2.64282,5.7793 5.7793,5.7793 h 12.83007 c 3.13649,0 5.7793,-2.64282 5.7793,-5.7793 v -39.57031 h 10.00781 c 23.17466,0 41.94922,-18.77457 41.94922,-41.94922 v -10.00586 h 39.56836 c 3.13648,0 5.7793,-2.64282 5.7793,-5.7793 v -12.83007 c 0,-3.13648 -2.64282,-5.78125 -5.7793,-5.78125 h -39.56836 v -29.16016 h 39.56836 c 3.13648,10e-6 5.7793,-2.64282 5.7793,-5.7793 v -12.83008 c 0,-3.13648 -2.64282,-5.78125 -5.7793,-5.78125 h -39.56836 v -29.16015 h 39.56836 c 3.13648,0 5.7793,-2.64282 5.7793,-5.7793 v -12.83008 c 0,-3.13649 -2.64282,-5.78125 -5.7793,-5.78125 h -39.56836 v -10.0039 c 0,-23.17465 -18.77456,-41.95117 -41.94922,-41.95118 h -10.00781 v -39.56835 c 0,-3.13648 -2.64281,-5.78125 -5.7793,-5.78125 h -12.83007 c -3.13648,0 -5.7793,2.64477 -5.7793,5.78125 v 39.56835 h -29.16211 v -39.56835 c 0,-3.13648 -2.64281,-5.78125 -5.7793,-5.78125 h -12.83008 c -3.13648,0 -5.77929,2.64477 -5.77929,5.78125 v 39.56835 h -29.16211 v -39.56835 c 0,-3.13648 -2.64282,-5.78125 -5.7793,-5.78125 z"
     id="path315"
     sodipodi:nodetypes="sscsscssssccssssccsssscsscssssccssssccsssscsscssssccssssccsssscsscssssccssssccsss" /></g><path
   style="font-weight:600;font-size:225.41px;line-height:0;font-family:'Sarasa Gothic SC';-inkscape-font-specification:'Sarasa Gothic SC Semi-Bold';text-align:end;letter-spacing:0px;word-spacing:0px;text-anchor:end;fill:#fdfcfc;stroke-width:13.4517"
   d="m 311.54954,236.24777 q -20.66203,0 -37.01944,-9.4701 -16.14226,-9.68533 -25.61233,-27.54937 -9.47008,-18.07926 -9.47008,-43.2611 0,-25.39707 9.47008,-43.26111 9.47007,-18.079263 25.61233,-27.549363 16.35741,-9.68532 37.01944,-9.68532 20.44681,0 36.58899,9.68532 16.35741,9.4701 25.61227,27.549363 9.47009,17.86404 9.47009,43.26111 0,21.09248 -6.88732,37.44991 -6.67208,16.1422 -18.50972,26.25798 l 21.73819,27.97983 h -26.90366 l -13.12902,-16.78789 q -12.91379,5.38074 -27.97982,5.38074 z m -8.82439,-54.45305 h 25.1818 l 13.12903,17.00312 q 6.67208,-6.88734 10.33102,-17.6488 3.65884,-10.76147 3.65884,-25.18184 0,-26.90368 -12.26801,-41.10882 -12.05287,-14.42036 -31.20829,-14.42036 -19.37064,0 -31.63874,14.42036 -12.2681,14.20514 -12.2681,41.10882 0,26.68844 12.2681,40.89358 12.2681,14.20514 31.63874,14.20514 6.45686,0 12.05287,-1.72184 z"
   id="text65"
   aria-label="Q&#10;" /><path
   style="font-weight:600;font-size:186.385px;line-height:0;font-family:'Sarasa Gothic SC';-inkscape-font-specification:'Sarasa Gothic SC Semi-Bold';text-align:end;letter-spacing:0px;word-spacing:0px;text-anchor:end;fill:#333839;stroke-width:11.1229"
   d="m 563.86379,152.22164 q -17.08481,0 -30.61035,-7.83055 -13.34746,-8.00851 -21.178,-22.77977 -7.83055,-14.94922 -7.83055,-35.771353 0,-21.0001 7.83055,-35.77136 7.83054,-14.94922 21.178,-22.779764 13.52554,-8.008516 30.61035,-8.008516 16.90682,0 30.25436,8.008516 13.52554,7.830544 21.17808,22.779764 7.83055,14.77126 7.83055,35.77136 0,17.440763 -5.695,30.966253 -5.51691,13.34752 -15.30509,21.71197 l 17.97463,23.1357 h -22.2459 l -10.85591,-13.88142 q -10.67808,4.44917 -23.13572,4.44917 z m -7.29664,-45.02563 h 20.82209 l 10.856,14.05937 q 5.517,-5.69493 8.54245,-14.59328 3.02537,-8.898353 3.02537,-20.822133 0,-22.24587 -10.14409,-33.99168 -9.96618,-11.923792 -25.80518,-11.923792 -16.017,0 -26.16117,11.923792 -10.14409,11.74581 -10.14409,33.99168 0,22.067903 10.14409,33.813723 10.14417,11.74582 26.16117,11.74582 5.339,0 9.96618,-1.42374 z m 134.89906,45.20359 q -22.60182,0 -36.12727,-10.32208 -13.34754,-10.50005 -14.23736,-29.72048 h 22.95772 q 0.71182,10.32208 8.36446,15.30516 7.83054,4.98307 18.86445,4.98307 11.3899,0 18.68654,-5.16103 7.29663,-5.16105 7.29663,-13.52549 0,-7.65259 -6.58473,-11.38989 -6.40681,-3.915273 -16.9069,-6.584783 l -14.59327,-3.91527 q -16.37299,-4.09324 -25.44927,-12.45769 -9.07635,-8.5424 -9.07635,-22.24586 0,-11.38989 6.2289,-19.932298 6.22882,-8.72038 16.90682,-13.347524 10.678,-4.805108 24.20353,-4.805108 13.88137,0 24.20346,4.805108 10.32209,4.627144 16.19499,13.16956 6.05091,8.364432 6.22891,19.220432 h -22.4239 q -0.88982,-8.36445 -7.47455,-12.813624 -6.58481,-4.627144 -17.0849,-4.627144 -10.85591,0 -17.26273,4.805108 -6.2289,4.80511 -6.2289,12.10175 0,5.51698 3.38145,9.07632 3.38136,3.38137 8.36436,5.51697 5.16109,1.95764 10.32209,3.20341 l 12.10181,3.2034 q 9.61018,2.31357 18.33055,6.76274 8.72036,4.27121 14.23736,11.74583 5.51699,7.296633 5.51699,18.686523 0,11.38988 -5.8729,20.11027 -5.69491,8.54242 -16.72891,13.34752 -10.85599,4.8051 -26.33908,4.8051 z m 111.22925,0 q -14.05936,0 -24.55945,-6.22884 -10.5,-6.40681 -16.19499,-17.61872 -5.69491,-11.21193 -5.69491,-26.16115 0,-15.127183 5.69491,-26.339113 5.69499,-11.38987 16.19499,-17.61872 10.50009,-6.40681 24.55945,-6.40681 14.23736,0 24.55945,6.40681 10.5,6.22885 16.19499,17.61872 5.69491,11.21193 5.69491,26.339113 0,14.94922 -5.69491,26.16115 -5.69499,11.21191 -16.19499,17.61872 -10.32209,6.22884 -24.55945,6.22884 z m 0,-18.33059 q 8.00846,0 13.16954,-4.27121 5.16109,-4.27121 7.83055,-11.38988 2.66954,-7.29664 2.66954,-16.19499 0,-8.898353 -2.66954,-16.017033 -2.66946,-7.29665 -7.83055,-11.56785 -5.16108,-4.2712 -13.16954,-4.2712 -7.83054,0 -12.99163,4.2712 -5.161,4.2712 -7.83054,11.56785 -2.49155,7.11868 -2.49155,16.017033 0,8.89835 2.49155,16.19499 2.66954,7.11867 7.83054,11.38988 5.16109,4.27121 12.99163,4.27121 z m 122.44108,18.15263 q -16.90682,0 -30.43227,-7.83055 -13.34755,-8.00851 -21.17809,-22.77977 -7.65255,-14.94922 -7.65255,-35.771353 0,-21.0001 7.83046,-35.77136 7.83055,-14.94922 21.17809,-22.779764 13.34754,-8.008516 30.25436,-8.008516 14.23736,0 25.80526,5.339008 11.56782,5.161044 19.04245,15.30516 7.65255,9.966142 9.78818,24.203502 H 956.4588 q -2.31363,-11.56785 -10.856,-17.79669 -8.36445,-6.406812 -20.11027,-6.406812 -15.83908,0 -26.16117,11.923792 -10.14409,11.92378 -10.14409,33.99168 0,22.245863 10.14409,33.991683 10.32209,11.56786 26.16117,11.56786 11.56782,0 20.11027,-6.22885 8.54237,-6.40681 10.856,-17.79669 h 23.31363 q -1.77972,12.45768 -8.89836,22.6018 -7.11864,10.14411 -18.86445,16.19499 -11.56791,6.05088 -26.87308,6.05088 z"
   id="text65-5"
   aria-label="QSoC&#10;" /><path
   style="font-weight:600;font-size:70.897px;line-height:0;font-family:'Sarasa Gothic SC';-inkscape-font-specification:'Sarasa Gothic SC Semi-Bold';text-align:end;letter-spacing:0px;word-spacing:0px;text-anchor:end;fill:#333839;stroke-width:4.23089"
   d="m 542.81628,230.42827 q -6.49872,0 -11.64355,-2.97856 -5.0771,-3.04628 -8.05563,-8.66496 -2.97862,-5.68638 -2.97862,-13.60669 0,-7.988 2.97862,-13.60668 2.97853,-5.68637 8.05563,-8.66495 5.14483,-3.04628 11.64355,-3.04628 6.43099,0 11.50817,3.04628 5.14483,2.97858 8.05572,8.66495 2.97853,5.61868 2.97853,13.60668 0,6.63411 -2.16621,11.77893 -2.09857,5.07712 -5.82178,8.25878 l 6.8372,8.80034 h -8.46192 l -4.12932,-5.2802 q -4.06177,1.69236 -8.80039,1.69236 z m -2.77552,-17.12681 h 7.92034 l 4.12941,5.3479 q 2.09849,-2.16624 3.24936,-5.55099 1.1508,-3.38475 1.1508,-7.92031 0,-8.46186 -3.85858,-12.92974 -3.79094,-4.53555 -9.81581,-4.53555 -6.09252,0 -9.95119,4.53555 -3.85857,4.46788 -3.85857,12.92974 0,8.39418 3.85857,12.86204 3.85867,4.46786 9.95119,4.46786 2.03084,0 3.79093,-0.54154 z m 46.23573,16.92373 q -5.68641,0 -9.20651,-3.65553 -3.45246,-3.65552 -3.45246,-10.28962 v -23.49015 h 8.59729 v 22.20394 q 0,3.65553 1.89546,5.82177 1.96311,2.09854 5.34785,2.09854 3.45246,0 5.61867,-2.23393 2.23394,-2.23394 2.23394,-6.22794 v -21.66238 h 8.66502 v 36.96144 h -8.19109 l -0.0674,-7.37875 q -3.24936,7.85261 -11.44045,7.85261 z m 28.77031,-0.47386 v -36.96144 h 8.59729 v 36.96144 z m 4.33251,-42.17395 q -2.09857,0 -3.58783,-1.35391 -1.42163,-1.42159 -1.42163,-3.38474 0,-1.96315 1.42163,-3.31705 1.48926,-1.3539 3.58783,-1.3539 2.09848,0 3.52011,1.3539 1.48926,1.3539 1.48926,3.31705 0,1.96315 -1.48926,3.38474 -1.42163,1.35391 -3.52011,1.35391 z m 29.44726,42.9186 q -5.34793,0 -9.34196,-2.36932 -3.99395,-2.43703 -6.16025,-6.70181 -2.16621,-4.26478 -2.16621,-9.95116 0,-5.75406 2.16621,-10.01885 2.1663,-4.33247 6.16025,-6.7018 3.99403,-2.43702 9.34196,-2.43702 6.22789,0 10.49267,3.11397 4.26478,3.11397 5.48331,8.52957 l -8.05572,1.69237 q -0.67695,-2.91088 -2.70779,-4.60327 -2.03084,-1.76006 -5.14482,-1.76006 -4.46789,0 -6.70183,3.52014 -2.23394,3.45244 -2.23394,8.59727 0,3.45242 0.94778,6.22792 1.01542,2.70781 2.97861,4.33249 2.03084,1.55697 5.00938,1.55697 3.18163,0 5.21255,-1.76006 2.03084,-1.82776 2.70779,-4.80634 l 8.05571,1.69237 q -1.21852,5.48329 -5.55103,8.66495 -4.26478,3.18167 -10.49267,3.18167 z m 23.42239,-0.74465 v -49.28192 h 8.59729 v 27.21336 h 0.67694 l 13.26819,-14.89288 h 10.08656 l -14.28361,15.976 15.16365,20.98544 h -10.28965 l -11.44045,-15.84062 -3.18163,3.38476 v 12.45586 z m 73.31376,0.74465 q -8.59729,0 -13.74212,-3.92632 -5.0771,-3.99399 -5.41558,-11.30506 h 8.73267 q 0.27074,3.92632 3.18163,5.82178 2.97861,1.89546 7.17567,1.89546 4.33251,0 7.10802,-1.96316 2.77543,-1.96315 2.77543,-5.14481 0,-2.91089 -2.50468,-4.33248 -2.43705,-1.48929 -6.431,-2.50471 l -5.55103,-1.48929 q -6.22789,-1.55698 -9.68035,-4.73865 -3.45246,-3.24936 -3.45246,-8.46187 0,-4.33248 2.36931,-7.58183 2.36931,-3.31706 6.43108,-5.07712 4.06168,-1.82777 9.20651,-1.82777 5.2802,0 9.2065,1.82777 3.92631,1.76006 6.16025,5.00943 2.30159,3.18165 2.36931,7.31105 h -8.52956 q -0.33847,-3.18166 -2.84324,-4.87404 -2.50468,-1.76007 -6.49872,-1.76007 -4.12932,0 -6.56637,1.82777 -2.36931,1.82776 -2.36931,4.60325 0,2.09854 1.28617,3.45244 1.28624,1.28621 3.18171,2.09855 1.96311,0.74465 3.92631,1.21851 l 4.60325,1.2185 q 3.65548,0.88003 6.97257,2.57242 3.31701,1.62468 5.41557,4.46786 2.09857,2.7755 2.09857,7.10797 0,4.33247 -2.23394,7.64954 -2.1663,3.24935 -6.36335,5.07711 -4.12941,1.82777 -10.01882,1.82777 z m 25.92715,12.45587 2.03084,-6.7018 1.01542,0.27077 q 2.91089,0.74465 4.874,-0.20309 1.9632,-0.94772 2.57241,-4.06169 l 0.54158,-2.36931 -13.94514,-37.09684 h 9.20651 l 6.70182,20.1054 q 0.81232,2.43702 1.42154,4.80635 0.6093,2.36931 1.15088,4.80632 0.60922,-2.43701 1.21843,-4.80632 0.67695,-2.43704 1.48935,-4.80635 l 6.97257,-20.1054 h 9.07114 l -15.84069,41.70008 q -1.69237,4.46787 -4.73862,6.90489 -2.97854,2.43702 -7.98799,2.43702 -1.82774,0 -3.38473,-0.27078 -1.48935,-0.27079 -2.36932,-0.60925 z m 54.1559,-12.45587 q -6.36335,0 -10.5604,-2.70781 -4.12941,-2.70779 -5.07718,-7.78491 l 8.05571,-1.48929 q 1.42162,5.41559 7.71724,5.41559 3.18163,0 5.00946,-1.2862 1.89547,-1.2862 1.89547,-3.11396 0,-3.18167 -4.94182,-4.2648 l -6.36326,-1.35389 q -10.3573,-2.23393 -10.3573,-10.35733 0,-3.45243 1.89538,-5.95715 1.89547,-2.50471 5.21256,-3.85861 3.38473,-1.4216 7.78488,-1.4216 6.29563,0 9.95119,2.6401 3.65548,2.57241 4.80635,6.90489 l -7.71724,1.48929 q -0.6093,-1.89546 -2.30158,-3.24935 -1.62473,-1.3539 -4.60334,-1.3539 -2.70779,0 -4.60326,1.2185 -1.82774,1.21851 -1.82774,3.04628 0,1.62468 1.21853,2.7078 1.21852,1.01541 4.06167,1.62468 l 6.22798,1.35389 q 10.3573,2.23394 10.3573,9.95116 0,3.52014 -2.03084,6.22793 -1.96319,2.64011 -5.55103,4.1294 -3.58783,1.48929 -8.25873,1.48929 z m 40.27849,-37.70609 v 6.76949 h -7.17567 v 19.76694 q 0,2.03084 0.81232,2.97856 0.88005,0.94773 2.91089,0.94773 0.54157,0 1.48927,-0.13538 1.01542,-0.20309 1.62472,-0.33848 l 1.35389,6.70181 q -1.42162,0.40617 -2.91089,0.54155 -1.48926,0.20308 -2.84315,0.20308 -5.34793,0 -8.19109,-2.6401 -2.84325,-2.6401 -2.84325,-7.51414 v -20.51157 h -5.21247 v -6.76949 h 5.21247 v -8.80035 h 8.59729 v 8.80035 z m 22.4747,37.70609 q -5.61868,0 -9.68036,-2.30164 -3.99403,-2.36931 -6.16024,-6.63409 -2.16622,-4.26478 -2.16622,-10.08656 0,-5.68637 2.09849,-9.95115 2.16629,-4.33248 6.0926,-6.7695 3.92631,-2.43702 9.20651,-2.43702 4.53552,0 8.32646,1.96315 3.85858,1.96316 6.22798,6.09255 2.36931,4.12939 2.36931,10.6281 v 2.70781 h -25.72414 q 0.13546,4.87404 2.70787,7.51414 2.64006,2.57241 6.76947,2.57241 2.84315,0 4.87399,-1.21851 2.03084,-1.28621 2.91089,-3.58784 l 7.92034,1.62468 q -1.35389,4.46787 -5.55103,7.17566 -4.12932,2.70781 -10.22192,2.70781 z m -9.40961,-22.67782 h 17.32995 q -0.4062,-3.9263 -2.57241,-6.29562 -2.09857,-2.43702 -5.88942,-2.43702 -3.92639,0 -6.22798,2.5724 -2.30167,2.50472 -2.64014,6.16024 z m 33.03518,21.93317 v -36.96144 h 8.12336 l 0.2031,7.04027 q 1.48926,-3.92631 4.33251,-5.75407 2.84316,-1.89545 6.16025,-1.89545 7.10794,0 9.47725,8.05569 1.48926,-3.994 4.6709,-6.02484 3.24944,-2.03085 7.17566,-2.03085 4.94182,0 8.32655,3.24935 3.38473,3.24936 3.38473,9.4096 v 24.91174 h -8.59729 v -23.62554 q 0,-3.38474 -1.89546,-4.94173 -1.89539,-1.62468 -4.53553,-1.62468 -3.11399,0 -4.94173,1.96316 -1.76009,1.89545 -1.76009,5.00942 v 23.21937 h -8.39419 v -23.96401 q 0,-2.84319 -1.76001,-4.53555 -1.7601,-1.69239 -4.46788,-1.69239 -2.84316,0 -4.87409,1.96316 -2.03084,1.89545 -2.03084,5.61867 v 22.61012 z"
   id="text317"
   aria-label="Quick System&#10;" /><path
   style="font-weight:600;font-size:70.897px;line-height:0;font-family:'Sarasa Gothic SC';-inkscape-font-specification:'Sarasa Gothic SC Semi-Bold';text-align:end;letter-spacing:0px;word-spacing:0px;text-anchor:end;fill:#333839;stroke-width:4.23089"
   d="m 523.3202,298.43246 q -5.34793,0 -9.34197,-2.36933 -3.99395,-2.43701 -6.16025,-6.70179 -2.16621,-4.26479 -2.16621,-9.95116 0,-5.75407 2.16621,-10.01885 2.1663,-4.33249 6.16025,-6.7018 3.99404,-2.43702 9.34197,-2.43702 5.41557,0 9.34188,2.43702 3.99395,2.36931 6.16025,6.7018 2.16621,4.26478 2.16621,10.01885 0,5.68637 -2.16621,9.95116 -2.1663,4.26478 -6.16025,6.70179 -3.92631,2.36933 -9.34188,2.36933 z m 0,-6.97258 q 3.04626,0 5.00937,-1.62468 1.96319,-1.62468 2.97861,-4.33247 1.01542,-2.77549 1.01542,-6.16024 0,-3.38475 -1.01542,-6.09255 -1.01542,-2.7755 -2.97861,-4.40018 -1.96311,-1.62467 -5.00937,-1.62467 -2.97862,0 -4.94173,1.62467 -1.9632,1.62468 -2.97862,4.40018 -0.94769,2.7078 -0.94769,6.09255 0,3.38475 0.94769,6.16024 1.01542,2.70779 2.97862,4.33247 1.96311,1.62468 4.94173,1.62468 z m 33.77968,-15.43445 v 21.66238 h -8.59729 v -36.96144 h 8.19109 l 0.0674,7.37875 q 3.31709,-7.85261 11.44045,-7.85261 5.6864,0 9.13887,3.65553 3.45237,3.65552 3.45237,10.28963 v 23.49014 h -8.5972 v -22.20394 q 0,-3.65553 -1.89547,-5.75408 -1.89547,-2.16623 -5.2802,-2.16623 -3.45246,0 -5.6864,2.23394 -2.23394,2.23393 -2.23394,6.22793 z m 71.28284,22.33933 q -6.43108,0 -11.57582,-2.97857 -5.07719,-3.04628 -8.05572,-8.66496 -2.91089,-5.68638 -2.91089,-13.60669 0,-7.98799 2.97853,-13.60667 2.97862,-5.68638 8.05572,-8.66496 5.0771,-3.04627 11.50818,-3.04627 5.41557,0 9.81572,2.03085 4.40016,1.96315 7.2434,5.82176 2.91089,3.79092 3.72321,9.20651 h -8.86804 q -0.88005,-4.40016 -4.12941,-6.76949 -3.18163,-2.43702 -7.64951,-2.43702 -6.02488,0 -9.95118,4.53556 -3.85858,4.53557 -3.85858,12.92973 0,8.46188 3.85858,12.92974 3.9263,4.40017 9.95118,4.40017 4.40015,0 7.64951,-2.36932 3.24936,-2.43702 4.12941,-6.7695 h 8.86804 q -0.67695,4.73865 -3.38474,8.59726 -2.70778,3.85862 -7.17567,6.16024 -4.40015,2.30163 -10.22192,2.30163 z m 37.09677,-22.33933 v 21.66238 h -8.59729 v -49.28192 h 8.46192 v 19.15767 q 3.38473,-7.31105 11.23735,-7.31105 5.6864,0 9.13878,3.65553 3.52019,3.65552 3.52019,10.28963 v 23.49014 h -8.66494 v -22.20394 q 0,-3.65553 -1.89546,-5.75408 -1.89547,-2.16623 -5.2802,-2.16623 -3.45247,0 -5.68641,2.23394 -2.23394,2.23393 -2.23394,6.22793 z m 32.832,21.66238 v -36.96144 h 8.59729 v 36.96144 z m 4.33251,-42.17395 q -2.09857,0 -3.58784,-1.35391 -1.42162,-1.42158 -1.42162,-3.38474 0,-1.96315 1.42162,-3.31704 1.48927,-1.35391 3.58784,-1.35391 2.09856,0 3.5201,1.35391 1.48935,1.35389 1.48935,3.31704 0,1.96316 -1.48935,3.38474 -1.42154,1.35391 -3.5201,1.35391 z m 13.40356,55.98372 v -50.77121 h 8.3941 v 6.09254 h 0.6093 q 0.60922,-1.28619 1.82774,-2.77549 1.21852,-1.55697 3.31709,-2.6401 2.16621,-1.15081 5.41557,-1.15081 4.26478,0 7.71725,2.23394 3.45246,2.16623 5.4833,6.43101 2.03084,4.19708 2.03084,10.35732 0,6.09255 -2.03084,10.35734 -1.9632,4.26477 -5.41566,6.49872 -3.45238,2.23392 -7.85261,2.23392 -3.11391,0 -5.21248,-1.08312 -2.09856,-1.08312 -3.38473,-2.5724 -1.28625,-1.55698 -1.89547,-2.8432 h -0.4062 v 19.63154 z m 17.19449,-20.24078 q 4.33243,0 6.56637,-3.38475 2.23394,-3.45245 2.23394,-8.59727 0,-5.2125 -2.23394,-8.52956 -2.16622,-3.38474 -6.56637,-3.38474 -4.26478,0 -6.49872,3.24936 -2.23394,3.24935 -2.23394,8.66494 0,5.34791 2.23394,8.66496 2.30158,3.31706 6.49872,3.31706 z m 59.84239,7.17566 q -8.59721,0 -13.74204,-3.9263 -5.0771,-3.99401 -5.41557,-11.30506 h 8.73258 q 0.27083,3.9263 3.18171,5.82176 2.97862,1.89546 7.17567,1.89546 4.33243,0 7.10794,-1.96316 2.77552,-1.96315 2.77552,-5.14481 0,-2.91088 -2.50469,-4.33248 -2.43704,-1.48929 -6.43108,-2.50471 l -5.55094,-1.48929 q -6.22798,-1.55698 -9.68036,-4.73865 -3.45246,-3.24936 -3.45246,-8.46187 0,-4.33247 2.36932,-7.58183 2.36931,-3.31705 6.43099,-5.07713 4.06176,-1.82775 9.20651,-1.82775 5.2802,0 9.2065,1.82775 3.92631,1.76008 6.16025,5.00943 2.30167,3.18167 2.36931,7.31106 h -8.52956 q -0.33839,-3.18166 -2.84316,-4.87403 -2.50468,-1.76008 -6.49872,-1.76008 -4.1294,0 -6.56636,1.82777 -2.3694,1.82776 -2.3694,4.60326 0,2.09854 1.28625,3.45244 1.28616,1.2862 3.18163,2.09854 1.9632,0.74465 3.92631,1.21851 l 4.60325,1.2185 q 3.65557,0.88005 6.97265,2.57242 3.31701,1.62468 5.41558,4.46786 2.09848,2.7755 2.09848,7.10797 0,4.33248 -2.23385,7.64954 -2.1663,3.24936 -6.36335,5.07711 -4.12941,1.82777 -10.01891,1.82777 z m 43.39248,-37.70609 v 6.76949 h -7.17567 v 19.76693 q 0,2.03085 0.81232,2.97858 0.88004,0.94772 2.91088,0.94772 0.54158,0 1.48927,-0.13538 1.01542,-0.20308 1.62472,-0.33847 l 1.3539,6.7018 q -1.42163,0.40616 -2.91089,0.54156 -1.48935,0.20309 -2.84316,0.20309 -5.34793,0 -8.19109,-2.64012 -2.84324,-2.64009 -2.84324,-7.51413 v -20.51158 h -5.21247 v -6.76949 h 5.21247 v -8.80035 h 8.59729 v 8.80035 z m 19.42843,37.43532 q -5.68632,0 -9.20642,-3.65553 -3.45246,-3.65553 -3.45246,-10.28964 v -23.49015 h 8.5972 v 22.20394 q 0,3.65553 1.89547,5.82177 1.96319,2.09855 5.34793,2.09855 3.45246,0 5.61867,-2.23394 2.23394,-2.23393 2.23394,-6.22794 v -21.66238 h 8.66494 v 36.96144 h -8.19109 l -0.0674,-7.37875 q -3.24936,7.85263 -11.44045,7.85263 z m 42.44471,0.20307 q -4.40016,0 -7.85262,-2.23392 -3.45246,-2.23395 -5.4833,-6.49872 -1.96311,-4.26479 -1.96311,-10.35734 0,-6.16024 2.03084,-10.35732 2.03084,-4.26478 5.4833,-6.43101 3.45246,-2.23394 7.71724,-2.23394 3.31701,0 5.41557,1.15081 2.09857,1.08313 3.31709,2.6401 1.21852,1.4893 1.89539,2.77549 h 0.33855 v -18.41302 h 8.59721 v 49.28192 h -8.39419 v -5.82177 h -0.54157 q -0.67687,1.28622 -1.96311,2.8432 -1.28617,1.48928 -3.38474,2.5724 -2.09857,1.08312 -5.21255,1.08312 z m 2.30166,-7.10796 q 4.19706,0 6.49873,-3.31706 2.30158,-3.31705 2.30158,-8.66496 0,-5.41559 -2.30158,-8.66494 -2.23394,-3.24936 -6.49873,-3.24936 -4.3325,0 -6.56644,3.38474 -2.23395,3.31706 -2.23395,8.52956 0,5.14482 2.23395,8.59727 2.23394,3.38475 6.56644,3.38475 z m 26.26563,6.43101 v -36.96144 h 8.59729 v 36.96144 z m 4.33251,-42.17395 q -2.09848,0 -3.58783,-1.35391 -1.42154,-1.42158 -1.42154,-3.38474 0,-1.96315 1.42154,-3.31704 1.48935,-1.35391 3.58783,-1.35391 2.09857,0 3.52011,1.35391 1.48935,1.35389 1.48935,3.31704 0,1.96316 -1.48935,3.38474 -1.42154,1.35391 -3.52011,1.35391 z m 29.44727,42.9186 q -5.34793,0 -9.34188,-2.36933 -3.99404,-2.43701 -6.16025,-6.70179 -2.1663,-4.26479 -2.1663,-9.95116 0,-5.75407 2.1663,-10.01885 2.16621,-4.33249 6.16025,-6.7018 3.99395,-2.43702 9.34188,-2.43702 5.41557,0 9.34188,2.43702 3.99403,2.36931 6.16024,6.7018 2.16622,4.26478 2.16622,10.01885 0,5.68637 -2.16622,9.95116 -2.16621,4.26478 -6.16024,6.70179 -3.92631,2.36933 -9.34188,2.36933 z m 0,-6.97258 q 3.04626,0 5.00937,-1.62468 1.96319,-1.62468 2.97861,-4.33247 1.01542,-2.77549 1.01542,-6.16024 0,-3.38475 -1.01542,-6.09255 -1.01542,-2.7755 -2.97861,-4.40018 -1.96311,-1.62467 -5.00937,-1.62467 -2.97854,0 -4.94173,1.62467 -1.9632,1.62468 -2.97862,4.40018 -0.94769,2.7078 -0.94769,6.09255 0,3.38475 0.94769,6.16024 1.01542,2.70779 2.97862,4.33247 1.96319,1.62468 4.94173,1.62468 z"
   id="text320"
   aria-label="on Chip Studio" /></g><rect
       style="opacity:1;fill:#1f9195;fill-opacity:1;stroke:#1f9195;stroke-width:1.618;stroke-miterlimit:4;stroke-dasharray:none;stroke-opacity:1"
       id="rect837"
       width="0.38243318"
       height="21.803802"
       x="0.8087818"
       y="41.720905" /></g><style
     type="text/css"
     id="style211">
	.st0{fill:#2B2E7D;}
	.st1{fill:#10CFC9;}
	.st2{fill:#1226AA;}
	.st3{fill:#51C2BE;}
	.st4{fill:#FFFFFF;}
</style></svg>
