<?xml version="1.0" encoding="UTF-8" standalone="no"?>
<!-- Created with Inkscape (http://www.inkscape.org/) -->

<svg
   version="1.1"
   id="svg1"
   width="300.00006"
   height="113.731"
   viewBox="0 0 300.00006 113.731"
   sodipodi:docname="logo.svg"
   inkscape:version="1.4 (e7c3feb100, 2024-10-09)"
   xmlns:inkscape="http://www.inkscape.org/namespaces/inkscape"
   xmlns:sodipodi="http://sodipodi.sourceforge.net/DTD/sodipodi-0.dtd"
   xmlns="http://www.w3.org/2000/svg"
   xmlns:svg="http://www.w3.org/2000/svg">
  <defs
     id="defs1" />
  <sodipodi:namedview
     id="namedview1"
     pagecolor="#ffffff"
     bordercolor="#666666"
     borderopacity="1.0"
     inkscape:showpageshadow="2"
     inkscape:pageopacity="0.0"
     inkscape:pagecheckerboard="0"
     inkscape:deskcolor="#d1d1d1"
     inkscape:zoom="0.54621237"
     inkscape:cx="-99.778041"
     inkscape:cy="92.454882"
     inkscape:window-width="2560"
     inkscape:window-height="995"
     inkscape:window-x="0"
     inkscape:window-y="0"
     inkscape:window-maximized="1"
     inkscape:current-layer="g1" />
  <g
     inkscape:groupmode="layer"
     inkscape:label="Image"
     id="g1"
     transform="translate(-356.5725,-768.4763)">
    <g
       id="g65"
       transform="matrix(0.34875945,0,0,0.34875945,331.70654,664.36512)"
       style="fill:#1f9195;fill-opacity:1">
      <path
         d="m 176.16354,306.07912 v 45.34961 h -17.5664 c -19.11771,2e-5 -34.39063,15.27293 -34.39063,34.39063 v 17.56445 H 78.856903 v 9.26953 h 45.349607 v 44.28125 H 78.856903 v 9.26953 h 45.349607 v 44.28125 H 78.856903 v 9.26953 h 45.349607 v 17.56641 c 0,19.1177 15.27292,34.38867 34.39063,34.38867 h 17.5664 v 45.34961 h 9.26953 v -45.34961 h 44.2793 v 45.34961 h 9.27149 v -45.34961 h 44.27929 v 45.34961 h 9.27149 v -45.34961 h 17.5664 c 19.11771,0 34.39063,-15.27097 34.39063,-34.38867 V 519.7549 h 45.34765 v -9.26953 h -45.34765 v -44.28125 h 45.34765 v -9.26953 h -45.34765 v -44.28125 h 45.34765 v -9.26953 h -45.34765 v -17.56445 c 0,-19.1177 -15.27292,-34.39063 -34.39063,-34.39063 h -17.5664 v -45.34961 h -9.27149 v 45.34961 h -44.27929 v -45.34961 h -9.27149 v 45.34961 h -44.2793 v -45.34961 z"
         id="path316" />
      <path
         d="m 174.38425,298.51858 c -3.13649,0 -5.7793,2.64477 -5.7793,5.78125 v 39.56835 h -10.00781 c -23.17466,2e-5 -41.94922,18.77653 -41.94922,41.95118 v 10.0039 H 77.077606 c -3.136484,0 -5.779297,2.64476 -5.779297,5.78125 v 12.83008 c 0,3.13648 2.642813,5.7793 5.779297,5.7793 h 39.570314 v 29.16015 H 77.077606 c -3.136484,0 -5.779297,2.64477 -5.779297,5.78125 v 12.83008 c 0,3.13648 2.642813,5.7793 5.779297,5.7793 h 39.570314 v 29.16016 H 77.077606 c -3.136484,0 -5.779297,2.64477 -5.779297,5.78125 v 12.83007 c 0,3.13648 2.642813,5.7793 5.779297,5.7793 h 39.570314 v 10.00586 c 0,23.17465 18.77456,41.94922 41.94922,41.94922 h 10.00781 v 39.57031 c 0,3.13648 2.64281,5.7793 5.7793,5.7793 h 12.82812 c 3.13648,0 5.7793,-2.64282 5.7793,-5.7793 v -39.57031 h 29.16211 v 39.57031 c 0,3.13648 2.64281,5.7793 5.77929,5.7793 h 12.83008 c 3.13649,0 5.7793,-2.64282 5.7793,-5.7793 v -39.57031 h 29.16211 v 39.57031 c 0,3.13648 2.64282,5.7793 5.7793,5.7793 h 12.83007 c 3.13649,0 5.7793,-2.64282 5.7793,-5.7793 v -39.57031 h 10.00781 c 23.17466,0 41.94922,-18.77457 41.94922,-41.94922 v -10.00586 h 39.56836 c 3.13648,0 5.7793,-2.64282 5.7793,-5.7793 v -12.83007 c 0,-3.13648 -2.64282,-5.78125 -5.7793,-5.78125 h -39.56836 v -29.16016 h 39.56836 c 3.13648,10e-6 5.7793,-2.64282 5.7793,-5.7793 v -12.83008 c 0,-3.13648 -2.64282,-5.78125 -5.7793,-5.78125 h -39.56836 v -29.16015 h 39.56836 c 3.13648,0 5.7793,-2.64282 5.7793,-5.7793 v -12.83008 c 0,-3.13649 -2.64282,-5.78125 -5.7793,-5.78125 h -39.56836 v -10.0039 c 0,-23.17465 -18.77456,-41.95117 -41.94922,-41.95118 h -10.00781 v -39.56835 c 0,-3.13648 -2.64281,-5.78125 -5.7793,-5.78125 h -12.83007 c -3.13648,0 -5.7793,2.64477 -5.7793,5.78125 v 39.56835 h -29.16211 v -39.56835 c 0,-3.13648 -2.64281,-5.78125 -5.7793,-5.78125 h -12.83008 c -3.13648,0 -5.77929,2.64477 -5.77929,5.78125 v 39.56835 h -29.16211 v -39.56835 c 0,-3.13648 -2.64282,-5.78125 -5.7793,-5.78125 z"
         id="path315"
         sodipodi:nodetypes="sscsscssssccssssccsssscsscssssccssssccsssscsscssssccssssccsssscsscssssccssssccsss" />
    </g>
    <path
       style="font-weight:600;font-size:225.41px;line-height:0;font-family:'Sarasa Gothic SC';-inkscape-font-specification:'Sarasa Gothic SC Semi-Bold';text-align:end;letter-spacing:0px;word-spacing:0px;text-anchor:end;fill:#fdfcfc;stroke-width:4.91332"
       d="m 412.50002,852.23243 q -7.54694,0 -13.52159,-3.45901 -5.89604,-3.53763 -9.35505,-10.06258 -3.45901,-6.60357 -3.45901,-15.80139 0,-9.27644 3.45901,-15.80139 3.45901,-6.60356 9.35505,-10.06257 5.97465,-3.53763 13.52159,-3.53763 7.46831,0 13.36435,3.53763 5.97466,3.45901 9.35505,10.06257 3.45901,6.52495 3.45901,15.80139 0,7.70416 -2.51564,13.67881 -2.43703,5.89604 -6.76079,9.5909 l 7.94,10.2198 h -9.82674 l -4.79544,-6.13188 q -4.71683,1.96535 -10.2198,1.96535 z m -3.22317,-19.88932 h 9.19782 l 4.79545,6.2105 q 2.43703,-2.51564 3.77346,-6.44634 1.33644,-3.93069 1.33644,-9.19782 0,-9.82673 -4.48099,-15.01525 -4.40238,-5.26713 -11.39901,-5.26713 -7.07525,0 -11.55624,5.26713 -4.481,5.18852 -4.481,15.01525 0,9.74812 4.481,14.93664 4.48099,5.18851 11.55624,5.18851 2.35841,0 4.40237,-0.62891 z"
       id="text65"
       aria-label="Q&#10;" />
    <path
       style="font-weight:600;font-size:186.385px;line-height:0;font-family:'Sarasa Gothic SC';-inkscape-font-specification:'Sarasa Gothic SC Semi-Bold';text-align:end;letter-spacing:0px;word-spacing:0px;text-anchor:end;fill:#333839;stroke-width:4.0627"
       d="m 504.65936,821.54136 q -6.24034,0 -11.18061,-2.86015 -4.87526,-2.92516 -7.73542,-8.32046 -2.86015,-5.46029 -2.86015,-13.0657 0,-7.67042 2.86015,-13.06571 2.86016,-5.4603 7.73542,-8.32045 4.94027,-2.92516 11.18061,-2.92516 6.17533,0 11.0506,2.92516 4.94027,2.86015 7.73542,8.32045 2.86015,5.39529 2.86015,13.06571 0,6.37034 -2.08011,11.31061 -2.01511,4.87526 -5.5903,7.93043 l 6.56535,8.45046 h -8.12544 l -3.96521,-5.07028 q -3.90021,1.62509 -8.45046,1.62509 z m -2.66515,-16.44589 h 7.60542 l 3.96521,5.13528 q 2.01511,-2.08012 3.12017,-5.33029 1.10506,-3.25018 1.10506,-7.60541 0,-8.12544 -3.7052,-12.41568 -3.6402,-4.35523 -9.42551,-4.35523 -5.85032,0 -9.55552,4.35523 -3.7052,4.29024 -3.7052,12.41568 0,8.06043 3.7052,12.35067 3.7052,4.29023 9.55552,4.29023 1.9501,0 3.6402,-0.52003 z m 49.27272,16.5109 q -8.25545,0 -13.19572,-3.77021 -4.87526,-3.83521 -5.20028,-10.85559 h 8.38546 q 0.26001,3.77021 3.05516,5.5903 2.86016,1.8201 6.89038,1.8201 4.16022,0 6.82537,-1.8851 2.66514,-1.8851 2.66514,-4.94027 0,-2.79515 -2.40513,-4.16022 -2.34012,-1.43008 -6.17533,-2.40513 l -5.33029,-1.43008 q -5.98033,-1.49508 -9.29551,-4.55025 -3.31518,-3.12016 -3.31518,-8.12544 0,-4.16022 2.27513,-7.28039 2.27512,-3.18517 6.17533,-4.87527 3.90021,-1.75509 8.84048,-1.75509 5.07028,0 8.84048,1.75509 3.77021,1.6901 5.91532,4.81026 2.21012,3.05517 2.27513,7.02039 h -8.19045 q -0.32501,-3.05517 -2.73015,-4.68026 -2.40513,-1.69009 -6.24034,-1.69009 -3.96521,0 -6.30534,1.75509 -2.27512,1.7551 -2.27512,4.42024 0,2.01511 1.23507,3.31519 1.23506,1.23506 3.05516,2.0151 1.88511,0.71504 3.77021,1.17007 l 4.42024,1.17006 q 3.51019,0.84504 6.69536,2.47013 3.18517,1.56009 5.20028,4.29024 2.01511,2.66514 2.01511,6.82537 0,4.16022 -2.14511,7.3454 -2.08012,3.12017 -6.11033,4.87526 -3.96522,1.7551 -9.62053,1.7551 z m 40.62718,0 q -5.13528,0 -8.97049,-2.27513 -3.83521,-2.34013 -5.91532,-6.43535 -2.08011,-4.09522 -2.08011,-9.55552 0,-5.5253 2.08011,-9.62052 2.08011,-4.16022 5.91532,-6.43535 3.83521,-2.34012 8.97049,-2.34012 5.20028,0 8.97048,2.34012 3.83521,2.27513 5.91533,6.43535 2.08011,4.09522 2.08011,9.62052 0,5.4603 -2.08011,9.55552 -2.08012,4.09522 -5.91533,6.43535 -3.7702,2.27513 -8.97048,2.27513 z m 0,-6.69537 q 2.92516,0 4.81026,-1.56008 1.8851,-1.56009 2.86015,-4.16023 0.97506,-2.66514 0.97506,-5.91532 0,-3.25018 -0.97506,-5.85032 -0.97505,-2.66514 -2.86015,-4.22523 -1.8851,-1.56008 -4.81026,-1.56008 -2.86016,0 -4.74526,1.56008 -1.8851,1.56009 -2.86016,4.22523 -0.91004,2.60014 -0.91004,5.85032 0,3.25018 0.91004,5.91532 0.97506,2.60014 2.86016,4.16023 1.8851,1.56008 4.74526,1.56008 z m 44.72238,6.63036 q -6.17533,0 -11.1156,-2.86015 -4.87527,-2.92516 -7.73542,-8.32046 -2.79515,-5.46029 -2.79515,-13.0657 0,-7.67042 2.86015,-13.06571 2.86016,-5.4603 7.73542,-8.32045 4.87527,-2.92516 11.0506,-2.92516 5.20028,0 9.42551,1.9501 4.22523,1.88511 6.95538,5.59031 2.79515,3.64019 3.57519,8.84048 h -8.51546 q -0.84504,-4.22523 -3.96521,-6.50036 -3.05517,-2.34012 -7.3454,-2.34012 -5.78532,0 -9.55552,4.35523 -3.7052,4.35524 -3.7052,12.41568 0,8.12544 3.7052,12.41567 3.7702,4.22523 9.55552,4.22523 4.22523,0 7.3454,-2.27513 3.12017,-2.34012 3.96521,-6.50035 h 8.51546 q -0.65003,4.55025 -3.25018,8.25545 -2.60014,3.7052 -6.89037,5.91532 -4.22523,2.21012 -9.81553,2.21012 z"
       id="text65-5"
       aria-label="QSoC&#10;" />
    <path
       style="font-weight:600;font-size:70.897px;line-height:0;font-family:'Sarasa Gothic SC';-inkscape-font-specification:'Sarasa Gothic SC Semi-Bold';text-align:end;letter-spacing:0px;word-spacing:0px;text-anchor:end;fill:#333839;stroke-width:1.54536"
       d="m 496.97163,850.10682 q -2.3737,0 -4.25287,-1.08794 -1.85445,-1.11267 -2.94239,-3.16493 -1.08795,-2.07698 -1.08795,-4.96993 0,-2.91766 1.08795,-4.96992 1.08794,-2.07698 2.94239,-3.16493 1.87917,-1.11267 4.25287,-1.11267 2.34897,0 4.20342,1.11267 1.87918,1.08795 2.9424,3.16493 1.08794,2.05226 1.08794,4.96992 0,2.42315 -0.79123,4.30233 -0.76651,1.85445 -2.12644,3.01657 l 2.49733,3.21438 h -3.09075 l -1.50829,-1.92863 q -1.48356,0.61815 -3.21438,0.61815 z m -1.01376,-6.25568 h 2.89294 l 1.50829,1.95336 q 0.7665,-0.79123 1.18684,-2.02753 0.42034,-1.2363 0.42034,-2.89295 0,-3.09074 -1.40938,-4.72266 -1.38465,-1.65664 -3.58527,-1.65664 -2.22534,0 -3.63472,1.65664 -1.40938,1.63192 -1.40938,4.72266 0,3.06603 1.40938,4.69794 1.40938,1.63192 3.63472,1.63192 0.74178,0 1.38466,-0.19781 z m 16.88787,6.1815 q -2.07698,0 -3.36274,-1.3352 -1.26102,-1.3352 -1.26102,-3.75835 v -8.57992 h 3.1402 v 8.11013 q 0,1.3352 0.69233,2.12643 0.71705,0.76651 1.95335,0.76651 1.26103,0 2.05226,-0.81596 0.81596,-0.81596 0.81596,-2.27479 v -7.91232 h 3.16493 v 13.50039 h -2.99185 l -0.0247,-2.69513 q -1.18685,2.86821 -4.17869,2.86821 z m 10.50854,-0.17308 v -13.50039 h 3.1402 v 13.50039 z m 1.58247,-15.4043 q -0.76651,0 -1.31049,-0.49452 -0.51924,-0.51924 -0.51924,-1.2363 0,-0.71705 0.51924,-1.21157 0.54398,-0.49452 1.31049,-0.49452 0.7665,0 1.28575,0.49452 0.54397,0.49452 0.54397,1.21157 0,0.71706 -0.54397,1.2363 -0.51925,0.49452 -1.28575,0.49452 z m 10.75578,15.67629 q -1.95335,0 -3.41219,-0.86541 -1.45883,-0.89014 -2.25006,-2.44788 -0.79123,-1.55773 -0.79123,-3.63472 0,-2.10171 0.79123,-3.65944 0.79123,-1.58247 2.25006,-2.44788 1.45884,-0.89014 3.41219,-0.89014 2.27479,0 3.83253,1.1374 1.55774,1.1374 2.00281,3.11548 l -2.9424,0.61815 q -0.24726,-1.06322 -0.98904,-1.68137 -0.74178,-0.64288 -1.87917,-0.64288 -1.63192,0 -2.44788,1.28576 -0.81595,1.26102 -0.81595,3.1402 0,1.26102 0.34616,2.27479 0.37089,0.98904 1.08794,1.58246 0.74178,0.5687 1.82973,0.5687 1.16212,0 1.9039,-0.64287 0.74178,-0.66761 0.98904,-1.75555 l 2.94239,0.61815 q -0.44507,2.0028 -2.02753,3.16493 -1.55774,1.16212 -3.83253,1.16212 z m 8.5552,-0.27199 v -18.00052 h 3.1402 v 9.93985 h 0.24726 l 4.8463,-5.43972 h 3.68417 l -5.21718,5.83533 5.53862,7.66506 h -3.75835 l -4.1787,-5.78588 -1.16212,1.2363 v 4.54958 z m 26.77828,0.27199 q -3.1402,0 -5.01937,-1.43411 -1.85445,-1.45883 -1.97808,-4.12924 h 3.18965 q 0.0989,1.43411 1.16212,2.12644 1.08795,0.69232 2.62096,0.69232 1.58246,0 2.59623,-0.71705 1.01376,-0.71705 1.01376,-1.87918 0,-1.06321 -0.91486,-1.58246 -0.89014,-0.54397 -2.34897,-0.91486 l -2.02753,-0.54397 q -2.27479,-0.5687 -3.53582,-1.73082 -1.26102,-1.18685 -1.26102,-3.09076 0,-1.58246 0.86541,-2.76931 0.86541,-1.21157 2.34897,-1.85445 1.48356,-0.6676 3.36273,-0.6676 1.92863,0 3.36274,0.6676 1.43411,0.64288 2.25006,1.82973 0.84069,1.16212 0.86541,2.67041 h -3.11547 q -0.12363,-1.16213 -1.03849,-1.78028 -0.91487,-0.64287 -2.3737,-0.64287 -1.50829,0 -2.39842,0.6676 -0.86541,0.6676 -0.86541,1.68136 0,0.76651 0.46979,1.26103 0.4698,0.4698 1.16212,0.76651 0.71706,0.27199 1.43411,0.44507 l 1.68137,0.44506 q 1.3352,0.32144 2.54678,0.93959 1.21157,0.59343 1.97808,1.63192 0.7665,1.01377 0.7665,2.59623 0,1.58246 -0.81596,2.79404 -0.79123,1.18684 -2.32424,1.85445 -1.50828,0.6676 -3.65945,0.6676 z m 9.47006,4.54958 0.74178,-2.44787 0.37089,0.0989 q 1.06321,0.27199 1.78027,-0.0742 0.71705,-0.34616 0.93959,-1.48356 l 0.19781,-0.8654 -5.09356,-13.54985 h 3.36274 l 2.44787,7.34362 q 0.29671,0.89013 0.51925,1.75555 0.22253,0.8654 0.42034,1.75554 0.22253,-0.89014 0.44506,-1.75554 0.24726,-0.89014 0.54398,-1.75555 l 2.54678,-7.34362 h 3.31328 l -5.78588,15.23121 q -0.61816,1.63192 -1.73082,2.52206 -1.08795,0.89013 -2.91767,0.89013 -0.66761,0 -1.2363,-0.0989 -0.54397,-0.0989 -0.86541,-0.22254 z m 19.78078,-4.54958 q -2.32425,0 -3.85726,-0.98904 -1.50829,-0.98904 -1.85445,-2.84349 l 2.94239,-0.54397 q 0.51925,1.97808 2.81877,1.97808 1.16212,0 1.82972,-0.4698 0.69233,-0.46979 0.69233,-1.13739 0,-1.16212 -1.805,-1.55774 l -2.32424,-0.49452 q -3.78308,-0.81596 -3.78308,-3.78308 0,-1.26102 0.69233,-2.17589 0.69233,-0.91486 1.9039,-1.40938 1.2363,-0.51925 2.84349,-0.51925 2.29952,0 3.63472,0.96432 1.3352,0.93959 1.75555,2.52205 l -2.81876,0.54397 q -0.22254,-0.69232 -0.84069,-1.18684 -0.59342,-0.49452 -1.68137,-0.49452 -0.98904,0 -1.68137,0.44506 -0.6676,0.44507 -0.6676,1.11267 0,0.59343 0.44507,0.98904 0.44507,0.37089 1.48356,0.59343 l 2.27479,0.49452 q 3.78308,0.81596 3.78308,3.63472 0,1.28575 -0.74178,2.27479 -0.71706,0.96431 -2.02753,1.50829 -1.31048,0.54397 -3.01657,0.54397 z m 14.71197,-13.77238 v 2.4726 h -2.62096 v 7.21999 q 0,0.74178 0.29671,1.08794 0.32144,0.34617 1.06322,0.34617 0.19781,0 0.54397,-0.0494 0.37089,-0.0742 0.59343,-0.12364 l 0.49452,2.44788 q -0.51925,0.14836 -1.06322,0.19781 -0.54397,0.0742 -1.03849,0.0742 -1.95336,0 -2.99185,-0.96431 -1.03849,-0.96431 -1.03849,-2.74459 v -7.49197 h -1.9039 v -2.4726 h 1.9039 v -3.21438 h 3.1402 v 3.21438 z m 8.20903,13.77238 q -2.05225,0 -3.53581,-0.84069 -1.45884,-0.8654 -2.25007,-2.42314 -0.79123,-1.55774 -0.79123,-3.68418 0,-2.07698 0.7665,-3.63472 0.79124,-1.58246 2.22534,-2.4726 1.43411,-0.89014 3.36274,-0.89014 1.65664,0 3.0413,0.71706 1.40938,0.71705 2.27479,2.22534 0.86541,1.50828 0.86541,3.88198 v 0.98904 h -9.39588 q 0.0494,1.78027 0.98904,2.74459 0.96431,0.93959 2.4726,0.93959 1.03849,0 1.78027,-0.44507 0.74178,-0.4698 1.06322,-1.31048 l 2.89294,0.59342 q -0.49452,1.63192 -2.02753,2.62096 -1.50829,0.98904 -3.73363,0.98904 z m -3.43691,-8.28321 h 6.32986 q -0.14836,-1.43411 -0.93959,-2.29952 -0.76651,-0.89014 -2.15117,-0.89014 -1.4341,0 -2.27479,0.93959 -0.84068,0.91487 -0.96431,2.25007 z m 12.06628,8.01122 v -13.50039 h 2.96712 l 0.0742,2.5715 q 0.54397,-1.43411 1.58246,-2.10171 1.0385,-0.69233 2.25007,-0.69233 2.59623,0 3.46164,2.9424 0.54397,-1.45884 1.70609,-2.20062 1.18685,-0.74178 2.62096,-0.74178 1.805,0 3.0413,1.18685 1.2363,1.18685 1.2363,3.43692 v 9.09916 h -3.14021 v -8.62937 q 0,-1.2363 -0.69232,-1.805 -0.69233,-0.59342 -1.65664,-0.59342 -1.1374,0 -1.805,0.71705 -0.64288,0.69233 -0.64288,1.82972 v 8.48102 h -3.06602 v -8.753 q 0,-1.03849 -0.64288,-1.65664 -0.64287,-0.61815 -1.63191,-0.61815 -1.0385,0 -1.78027,0.71705 -0.74178,0.69233 -0.74178,2.05226 v 8.25848 z"
       id="text317"
       aria-label="Quick System&#10;" />
    <path
       style="font-weight:600;font-size:70.897px;line-height:0;font-family:'Sarasa Gothic SC';-inkscape-font-specification:'Sarasa Gothic SC Semi-Bold';text-align:end;letter-spacing:0px;word-spacing:0px;text-anchor:end;fill:#333839;stroke-width:1.54536"
       d="m 489.85055,874.94577 q -1.95336,0 -3.41219,-0.86541 -1.45883,-0.89013 -2.25007,-2.44787 -0.79123,-1.55774 -0.79123,-3.63472 0,-2.10172 0.79123,-3.65945 0.79124,-1.58247 2.25007,-2.44788 1.45883,-0.89013 3.41219,-0.89013 1.97808,0 3.41219,0.89013 1.45883,0.86541 2.25006,2.44788 0.79123,1.55773 0.79123,3.65945 0,2.07698 -0.79123,3.63472 -0.79123,1.55774 -2.25006,2.44787 -1.43411,0.86541 -3.41219,0.86541 z m 0,-2.54678 q 1.11267,0 1.82972,-0.59342 0.71706,-0.59342 1.08795,-1.58246 0.37089,-1.01377 0.37089,-2.25007 0,-1.2363 -0.37089,-2.22534 -0.37089,-1.01377 -1.08795,-1.60719 -0.71705,-0.59342 -1.82972,-0.59342 -1.08794,0 -1.805,0.59342 -0.71705,0.59342 -1.08794,1.60719 -0.34617,0.98904 -0.34617,2.22534 0,1.2363 0.34617,2.25007 0.37089,0.98904 1.08794,1.58246 0.71706,0.59342 1.805,0.59342 z m 12.33826,-5.63752 v 7.91232 h -3.14021 v -13.5004 h 2.99185 l 0.0247,2.69513 q 1.21157,-2.86821 4.17869,-2.86821 2.07699,0 3.33801,1.3352 1.26103,1.3352 1.26103,3.75835 v 8.57993 h -3.1402 v -8.11013 q 0,-1.33521 -0.69233,-2.10172 -0.69233,-0.79123 -1.92863,-0.79123 -1.26103,0 -2.07698,0.81596 -0.81596,0.81596 -0.81596,2.2748 z m 26.03648,8.15958 q -2.34897,0 -4.22814,-1.08795 -1.85445,-1.11267 -2.9424,-3.16493 -1.06321,-2.07698 -1.06321,-4.96993 0,-2.91766 1.08794,-4.96992 1.08794,-2.07698 2.94239,-3.16493 1.85445,-1.11267 4.20342,-1.11267 1.97808,0 3.58527,0.74178 1.60719,0.71706 2.64568,2.12644 1.06322,1.38465 1.35993,3.36273 h -3.2391 q -0.32144,-1.60718 -1.50829,-2.4726 -1.16212,-0.89013 -2.79404,-0.89013 -2.20061,0 -3.63472,1.65664 -1.40938,1.65664 -1.40938,4.72266 0,3.09076 1.40938,4.72267 1.43411,1.60719 3.63472,1.60719 1.60719,0 2.79404,-0.86541 1.18685,-0.89013 1.50829,-2.4726 h 3.2391 q -0.24726,1.73082 -1.2363,3.1402 -0.98904,1.40939 -2.62095,2.25007 -1.60719,0.84069 -3.73363,0.84069 z m 13.54984,-8.15958 v 7.91232 h -3.14021 v -18.00053 h 3.09075 v 6.99745 q 1.2363,-2.6704 4.10452,-2.6704 2.07698,0 3.33801,1.3352 1.28575,1.3352 1.28575,3.75835 v 8.57993 h -3.16493 v -8.11013 q 0,-1.33521 -0.69233,-2.10172 -0.69232,-0.79123 -1.92862,-0.79123 -1.26103,0 -2.07699,0.81596 -0.81595,0.81596 -0.81595,2.2748 z m 11.99209,7.91232 v -13.5004 h 3.14021 v 13.5004 z m 1.58247,-15.4043 q -0.76651,0 -1.31048,-0.49452 -0.51925,-0.51925 -0.51925,-1.2363 0,-0.71706 0.51925,-1.21158 0.54397,-0.49452 1.31048,-0.49452 0.76651,0 1.28575,0.49452 0.54397,0.49452 0.54397,1.21158 0,0.71705 -0.54397,1.2363 -0.51924,0.49452 -1.28575,0.49452 z m 4.89572,20.4484 v -18.5445 h 3.06603 v 2.22534 h 0.22253 q 0.22254,-0.4698 0.6676,-1.01377 0.44507,-0.56869 1.21158,-0.96431 0.79123,-0.42034 1.97808,-0.42034 1.55774,0 2.81876,0.81596 1.26103,0.79123 2.00281,2.34896 0.74178,1.53301 0.74178,3.78308 0,2.22534 -0.74178,3.78308 -0.71706,1.55774 -1.97808,2.3737 -1.26103,0.81596 -2.86822,0.81596 -1.13739,0 -1.9039,-0.39562 -0.76651,-0.39562 -1.2363,-0.93959 -0.46979,-0.5687 -0.69233,-1.03849 h -0.14835 v 7.17054 z m 6.28041,-7.39308 q 1.58246,0 2.39842,-1.2363 0.81596,-1.26102 0.81596,-3.1402 0,-1.9039 -0.81596,-3.11547 -0.79123,-1.2363 -2.39842,-1.2363 -1.55774,0 -2.3737,1.18685 -0.81596,1.18684 -0.81596,3.16492 0,1.95336 0.81596,3.16493 0.84069,1.21157 2.3737,1.21157 z m 21.85782,2.62096 q -3.1402,0 -5.01938,-1.43411 -1.85445,-1.45883 -1.97808,-4.12924 h 3.18966 q 0.0989,1.43411 1.16212,2.12644 1.08794,0.69233 2.62095,0.69233 1.58247,0 2.59623,-0.71706 1.01377,-0.71705 1.01377,-1.87918 0,-1.06321 -0.91486,-1.58246 -0.89014,-0.54397 -2.34897,-0.91486 l -2.02754,-0.54397 q -2.27479,-0.5687 -3.53581,-1.73082 -1.26103,-1.18685 -1.26103,-3.09075 0,-1.58247 0.86541,-2.76932 0.86541,-1.21157 2.34897,-1.85445 1.48356,-0.6676 3.36274,-0.6676 1.92862,0 3.36273,0.6676 1.43411,0.64288 2.25007,1.82973 0.84068,1.16212 0.86541,2.67041 h -3.11548 q -0.12363,-1.16213 -1.03849,-1.78027 -0.91486,-0.64288 -2.3737,-0.64288 -1.50828,0 -2.39842,0.6676 -0.86541,0.6676 -0.86541,1.68137 0,0.76651 0.4698,1.26103 0.46979,0.46979 1.16212,0.7665 0.71705,0.27199 1.43411,0.44507 l 1.68136,0.44506 q 1.33521,0.32145 2.54678,0.93959 1.21158,0.59343 1.97808,1.63192 0.76651,1.01377 0.76651,2.59623 0,1.58247 -0.81596,2.79404 -0.79123,1.18685 -2.32424,1.85445 -1.50829,0.6676 -3.65945,0.6676 z m 15.84935,-13.77238 v 2.4726 h -2.62096 v 7.21999 q 0,0.74178 0.29671,1.08795 0.32144,0.34616 1.06322,0.34616 0.19781,0 0.54398,-0.0494 0.37088,-0.0742 0.59342,-0.12363 l 0.49452,2.44787 q -0.51925,0.14836 -1.06322,0.19781 -0.54397,0.0742 -1.03849,0.0742 -1.95335,0 -2.99185,-0.96432 -1.03849,-0.96431 -1.03849,-2.74458 v -7.49198 h -1.9039 v -2.4726 h 1.9039 v -3.21438 h 3.1402 v 3.21438 z m 7.09638,13.67348 q -2.07698,0 -3.36273,-1.33521 -1.26103,-1.3352 -1.26103,-3.75835 v -8.57992 h 3.1402 v 8.11013 q 0,1.3352 0.69233,2.12643 0.71705,0.76651 1.95335,0.76651 1.26103,0 2.05226,-0.81596 0.81596,-0.81596 0.81596,-2.27479 v -7.91232 h 3.16493 v 13.5004 h -2.99185 l -0.0247,-2.69514 q -1.18685,2.86822 -4.17869,2.86822 z m 15.50319,0.0742 q -1.60719,0 -2.86822,-0.81596 -1.26103,-0.81596 -2.00281,-2.3737 -0.71705,-1.55774 -0.71705,-3.78308 0,-2.25007 0.74178,-3.78308 0.74178,-1.55773 2.00281,-2.34896 1.26102,-0.81596 2.81876,-0.81596 1.21157,0 1.97808,0.42034 0.7665,0.39562 1.21157,0.96431 0.44507,0.54397 0.69233,1.01377 h 0.12363 v -6.72547 h 3.1402 v 18.00053 h -3.06602 v -2.12644 h -0.19781 q -0.24726,0.46979 -0.71705,1.03849 -0.4698,0.54397 -1.2363,0.93959 -0.76651,0.39562 -1.9039,0.39562 z m 0.84068,-2.59624 q 1.53301,0 2.37369,-1.21157 0.84069,-1.21157 0.84069,-3.16493 0,-1.97808 -0.84069,-3.16492 -0.81595,-1.18685 -2.37369,-1.18685 -1.58246,0 -2.39842,1.2363 -0.81596,1.21157 -0.81596,3.11547 0,1.87918 0.81596,3.1402 0.81596,1.2363 2.39842,1.2363 z m 9.59371,2.34898 v -13.5004 h 3.14019 v 13.5004 z m 1.58246,-15.4043 q -0.76651,0 -1.31048,-0.49452 -0.51924,-0.51925 -0.51924,-1.2363 0,-0.71706 0.51924,-1.21158 0.54397,-0.49452 1.31048,-0.49452 0.7665,0 1.28575,0.49452 0.54397,0.49452 0.54397,1.21158 0,0.71705 -0.54397,1.2363 -0.51925,0.49452 -1.28575,0.49452 z m 10.75579,15.67628 q -1.95336,0 -3.41219,-0.86541 -1.45883,-0.89013 -2.25007,-2.44787 -0.79123,-1.55774 -0.79123,-3.63472 0,-2.10172 0.79123,-3.65945 0.79124,-1.58247 2.25007,-2.44788 1.45883,-0.89013 3.41219,-0.89013 1.97808,0 3.41218,0.89013 1.45884,0.86541 2.25007,2.44788 0.79123,1.55773 0.79123,3.65945 0,2.07698 -0.79123,3.63472 -0.79123,1.55774 -2.25007,2.44787 -1.4341,0.86541 -3.41218,0.86541 z m 0,-2.54678 q 1.11267,0 1.82972,-0.59342 0.71705,-0.59342 1.08794,-1.58246 0.37089,-1.01377 0.37089,-2.25007 0,-1.2363 -0.37089,-2.22534 -0.37089,-1.01377 -1.08794,-1.60719 -0.71705,-0.59342 -1.82972,-0.59342 -1.08795,0 -1.805,0.59342 -0.71706,0.59342 -1.08794,1.60719 -0.34617,0.98904 -0.34617,2.22534 0,1.2363 0.34617,2.25007 0.37088,0.98904 1.08794,1.58246 0.71705,0.59342 1.805,0.59342 z"
       id="text320"
       aria-label="on Chip Studio" />
  </g>
</svg>
