<?xml version="1.0" encoding="UTF-8" standalone="no"?>
<!-- Created with Inkscape (http://www.inkscape.org/) -->

<svg
   version="1.1"
   id="svg1"
   width="860.19196"
   height="326.10156"
   viewBox="0 0 860.19196 326.10156"
   sodipodi:docname="qsoc_logo_exp.svg"
   inkscape:version="1.4 (e7c3feb100, 2024-10-09)"
   xmlns:inkscape="http://www.inkscape.org/namespaces/inkscape"
   xmlns:sodipodi="http://sodipodi.sourceforge.net/DTD/sodipodi-0.dtd"
   xmlns="http://www.w3.org/2000/svg"
   xmlns:svg="http://www.w3.org/2000/svg">
  <defs
     id="defs1" />
  <sodipodi:namedview
     id="namedview1"
     pagecolor="#ffffff"
     bordercolor="#666666"
     borderopacity="1.0"
     inkscape:showpageshadow="2"
     inkscape:pageopacity="0.0"
     inkscape:pagecheckerboard="0"
     inkscape:deskcolor="#d1d1d1"
     inkscape:zoom="0.54621237"
     inkscape:cx="179.41739"
     inkscape:cy="198.64069"
     inkscape:window-width="2560"
     inkscape:window-height="995"
     inkscape:window-x="0"
     inkscape:window-y="0"
     inkscape:window-maximized="1"
     inkscape:current-layer="g1" />
  <g
     inkscape:groupmode="layer"
     inkscape:label="Image"
     id="g1"
     transform="translate(-76.476563,-662.29102)">
    <g
       id="g65"
       transform="translate(5.1782537,363.77244)"
       style="fill:#1f9195;fill-opacity:1">
      <path
         d="m 176.16354,306.07912 v 45.34961 h -17.5664 c -19.11771,2e-5 -34.39063,15.27293 -34.39063,34.39063 v 17.56445 H 78.856903 v 9.26953 h 45.349607 v 44.28125 H 78.856903 v 9.26953 h 45.349607 v 44.28125 H 78.856903 v 9.26953 h 45.349607 v 17.56641 c 0,19.1177 15.27292,34.38867 34.39063,34.38867 h 17.5664 v 45.34961 h 9.26953 v -45.34961 h 44.2793 v 45.34961 h 9.27149 v -45.34961 h 44.27929 v 45.34961 h 9.27149 v -45.34961 h 17.5664 c 19.11771,0 34.39063,-15.27097 34.39063,-34.38867 V 519.7549 h 45.34765 v -9.26953 h -45.34765 v -44.28125 h 45.34765 v -9.26953 h -45.34765 v -44.28125 h 45.34765 v -9.26953 h -45.34765 v -17.56445 c 0,-19.1177 -15.27292,-34.39063 -34.39063,-34.39063 h -17.5664 v -45.34961 h -9.27149 v 45.34961 h -44.27929 v -45.34961 h -9.27149 v 45.34961 h -44.2793 v -45.34961 z"
         id="path316" />
      <path
         d="m 174.38425,298.51858 c -3.13649,0 -5.7793,2.64477 -5.7793,5.78125 v 39.56835 h -10.00781 c -23.17466,2e-5 -41.94922,18.77653 -41.94922,41.95118 v 10.0039 H 77.077606 c -3.136484,0 -5.779297,2.64476 -5.779297,5.78125 v 12.83008 c 0,3.13648 2.642813,5.7793 5.779297,5.7793 h 39.570314 v 29.16015 H 77.077606 c -3.136484,0 -5.779297,2.64477 -5.779297,5.78125 v 12.83008 c 0,3.13648 2.642813,5.7793 5.779297,5.7793 h 39.570314 v 29.16016 H 77.077606 c -3.136484,0 -5.779297,2.64477 -5.779297,5.78125 v 12.83007 c 0,3.13648 2.642813,5.7793 5.779297,5.7793 h 39.570314 v 10.00586 c 0,23.17465 18.77456,41.94922 41.94922,41.94922 h 10.00781 v 39.57031 c 0,3.13648 2.64281,5.7793 5.7793,5.7793 h 12.82812 c 3.13648,0 5.7793,-2.64282 5.7793,-5.7793 v -39.57031 h 29.16211 v 39.57031 c 0,3.13648 2.64281,5.7793 5.77929,5.7793 h 12.83008 c 3.13649,0 5.7793,-2.64282 5.7793,-5.7793 v -39.57031 h 29.16211 v 39.57031 c 0,3.13648 2.64282,5.7793 5.7793,5.7793 h 12.83007 c 3.13649,0 5.7793,-2.64282 5.7793,-5.7793 v -39.57031 h 10.00781 c 23.17466,0 41.94922,-18.77457 41.94922,-41.94922 v -10.00586 h 39.56836 c 3.13648,0 5.7793,-2.64282 5.7793,-5.7793 v -12.83007 c 0,-3.13648 -2.64282,-5.78125 -5.7793,-5.78125 h -39.56836 v -29.16016 h 39.56836 c 3.13648,10e-6 5.7793,-2.64282 5.7793,-5.7793 v -12.83008 c 0,-3.13648 -2.64282,-5.78125 -5.7793,-5.78125 h -39.56836 v -29.16015 h 39.56836 c 3.13648,0 5.7793,-2.64282 5.7793,-5.7793 v -12.83008 c 0,-3.13649 -2.64282,-5.78125 -5.7793,-5.78125 h -39.56836 v -10.0039 c 0,-23.17465 -18.77456,-41.95117 -41.94922,-41.95118 h -10.00781 v -39.56835 c 0,-3.13648 -2.64281,-5.78125 -5.7793,-5.78125 h -12.83007 c -3.13648,0 -5.7793,2.64477 -5.7793,5.78125 v 39.56835 h -29.16211 v -39.56835 c 0,-3.13648 -2.64281,-5.78125 -5.7793,-5.78125 h -12.83008 c -3.13648,0 -5.77929,2.64477 -5.77929,5.78125 v 39.56835 h -29.16211 v -39.56835 c 0,-3.13648 -2.64282,-5.78125 -5.7793,-5.78125 z"
         id="path315"
         sodipodi:nodetypes="sscsscssssccssssccsssscsscssssccssssccsssscsscssssccssssccsssscsscssssccssssccsss" />
    </g>
    <path
       style="font-weight:600;font-size:225.41px;line-height:0;font-family:'Sarasa Gothic SC';-inkscape-font-specification:'Sarasa Gothic SC Semi-Bold';text-align:end;letter-spacing:0px;word-spacing:0px;text-anchor:end;fill:#fdfcfc;stroke-width:14.088"
       d="m 236.83785,902.44545 q -21.63936,0 -38.77053,-9.91804 -16.90575,-10.14346 -26.82379,-28.85249 -9.91804,-18.93444 -9.91804,-45.30741 0,-26.59838 9.91804,-45.30741 9.91804,-18.93444 26.82379,-28.85248 17.13117,-10.14345 38.77053,-10.14345 21.41395,0 38.3197,10.14345 17.13116,9.91804 26.82379,28.85248 9.91804,18.70903 9.91804,45.30741 0,22.09018 -7.21312,39.22134 -6.98771,16.90575 -19.38526,27.50002 l 22.76641,29.30331 H 279.89116 L 266.14115,896.8102 q -13.5246,5.63525 -29.3033,5.63525 z m -9.24181,-57.02874 h 26.37297 l 13.75001,17.80739 q 6.98771,-7.21312 10.81968,-18.48362 3.83197,-11.2705 3.83197,-26.37297 0,-28.17625 -12.84837,-43.05331 -12.62296,-15.10247 -32.68445,-15.10247 -20.2869,0 -33.13527,15.10247 -12.84838,14.87706 -12.84838,43.05331 0,27.95084 12.84838,42.8279 12.84837,14.87706 33.13527,14.87706 6.7623,0 12.62296,-1.80328 z"
       id="text65"
       aria-label="Q&#10;" />
    <path
       style="font-weight:600;font-size:186.385px;line-height:0;font-family:'Sarasa Gothic SC';-inkscape-font-specification:'Sarasa Gothic SC Semi-Bold';text-align:end;letter-spacing:0px;word-spacing:0px;text-anchor:end;fill:#333839;stroke-width:11.649"
       d="m 501.08687,814.44478 q -17.89296,0 -32.05822,-8.20094 -13.97887,-8.38732 -22.17981,-23.85728 -8.20094,-15.65634 -8.20094,-37.46338 0,-21.99343 8.20094,-37.46338 8.20094,-15.65634 22.17981,-23.85728 14.16526,-8.38733 32.05822,-8.38733 17.70657,0 31.68545,8.38733 14.16526,8.20094 22.17981,23.85728 8.20094,15.46995 8.20094,37.46338 0,18.26573 -5.96432,32.43099 -5.77793,13.97887 -16.02911,22.73897 l 18.82489,24.23005 H 536.6864 l -11.36948,-14.53803 q -11.1831,4.65962 -24.23005,4.65962 z m -7.64179,-47.1554 h 21.80705 l 11.36948,14.72441 q 5.77794,-5.96432 8.94648,-15.28357 3.16855,-9.31925 3.16855,-21.80704 0,-23.29812 -10.62395,-35.59953 -10.43756,-12.4878 -27.02582,-12.4878 -16.77465,0 -27.3986,12.4878 -10.62394,12.30141 -10.62394,35.59953 0,23.11174 10.62394,35.41315 10.62395,12.30141 27.3986,12.30141 5.59155,0 10.43756,-1.49108 z m 141.27996,47.34179 q -23.6709,0 -37.83616,-10.81033 -13.97887,-10.99672 -14.9108,-31.1263 h 24.04367 q 0.74554,10.81033 8.76009,16.02911 8.20094,5.21878 19.75681,5.21878 11.92864,0 19.57043,-5.40516 7.64178,-5.40517 7.64178,-14.16526 0,-8.01456 -6.89624,-11.92864 -6.70986,-4.10047 -17.70658,-6.89625 l -15.28357,-4.10047 q -17.14742,-4.28685 -26.65305,-13.04695 -9.50564,-8.94647 -9.50564,-23.29812 0,-11.92864 6.52348,-20.87512 6.52347,-9.13286 17.70657,-13.97887 11.1831,-5.0324 25.34836,-5.0324 14.53803,0 25.34836,5.0324 10.81033,4.84601 16.96104,13.79249 6.33709,8.76009 6.52347,20.12958 h -23.48451 q -0.93192,-8.7601 -7.82817,-13.41972 -6.89624,-4.84601 -17.89296,-4.84601 -11.36948,0 -18.07934,5.03239 -6.52348,5.0324 -6.52348,12.67418 0,5.77794 3.54132,9.50564 3.54131,3.54131 8.76009,5.77793 5.40517,2.05024 10.81033,3.35493 l 12.67418,3.35493 q 10.06479,2.423 19.19766,7.08263 9.13286,4.47324 14.9108,12.30141 5.77793,7.64178 5.77793,19.57042 0,11.92864 -6.1507,21.06151 -5.96432,8.94648 -17.52019,13.97887 -11.36949,5.0324 -27.58498,5.0324 z m 116.49054,0 q -14.72442,0 -25.72113,-6.52348 -10.99672,-6.70986 -16.96104,-18.45211 -5.96432,-11.74226 -5.96432,-27.3986 0,-15.84272 5.96432,-27.58498 5.96432,-11.92863 16.96104,-18.45211 10.99671,-6.70986 25.72113,-6.70986 14.91079,0 25.72112,6.70986 10.99672,6.52348 16.96104,18.45211 5.96432,11.74226 5.96432,27.58498 0,15.65634 -5.96432,27.3986 -5.96432,11.74225 -16.96104,18.45211 -10.81033,6.52348 -25.72112,6.52348 z m 0,-19.19766 q 8.38732,0 13.79248,-4.47324 5.40517,-4.47324 8.20094,-11.92864 2.79578,-7.64178 2.79578,-16.96103 0,-9.31925 -2.79578,-16.77465 -2.79577,-7.64179 -8.20094,-12.11503 -5.40516,-4.47323 -13.79248,-4.47323 -8.20094,0 -13.60611,4.47323 -5.40516,4.47324 -8.20094,12.11503 -2.60939,7.4554 -2.60939,16.77465 0,9.31925 2.60939,16.96103 2.79578,7.4554 8.20094,11.92864 5.40517,4.47324 13.60611,4.47324 z m 128.23274,19.01127 q -17.70657,0 -31.87183,-8.20094 -13.97888,-8.38732 -22.17982,-23.85728 -8.01455,-15.65634 -8.01455,-37.46338 0,-21.99343 8.20094,-37.46338 8.20094,-15.65634 22.17981,-23.85728 13.97888,-8.38733 31.68545,-8.38733 14.9108,0 27.02583,5.59155 12.11502,5.40517 19.94319,16.02911 8.01455,10.43756 10.25117,25.34836 h -24.41643 q -2.423,-12.11502 -11.36948,-18.6385 -8.7601,-6.70986 -21.06151,-6.70986 -16.58826,0 -27.39859,12.4878 -10.62395,12.48779 -10.62395,35.59953 0,23.29812 10.62395,35.59953 10.81033,12.11503 27.39859,12.11503 12.11503,0 21.06151,-6.52348 8.94648,-6.70986 11.36948,-18.6385 h 24.41643 q -1.86385,13.04695 -9.31925,23.6709 -7.4554,10.62394 -19.7568,16.96103 -12.11503,6.33709 -28.14414,6.33709 z"
       id="text65-5"
       aria-label="QSoC&#10;" />
    <path
       style="font-weight:600;font-size:70.897px;line-height:0;font-family:'Sarasa Gothic SC';-inkscape-font-specification:'Sarasa Gothic SC Semi-Bold';text-align:end;letter-spacing:0px;word-spacing:0px;text-anchor:end;fill:#333839;stroke-width:4.43103"
       d="m 479.04381,896.35069 q -6.80612,0 -12.19429,-3.11946 -5.31727,-3.19037 -8.43674,-9.07482 -3.11947,-5.95535 -3.11947,-14.2503 0,-8.36584 3.11947,-14.2503 3.11947,-5.95534 8.43674,-9.07481 5.38817,-3.19037 12.19429,-3.19037 6.73521,0 12.05249,3.19037 5.38817,3.11947 8.43674,9.07481 3.11947,5.88446 3.11947,14.2503 0,6.94791 -2.26871,12.33608 -2.1978,5.31728 -6.09714,8.64943 l 7.1606,9.21661 h -8.86213 l -4.32471,-5.52996 q -4.25382,1.77242 -9.21661,1.77242 z m -2.90678,-17.93694 h 8.29495 l 4.32472,5.60087 q 2.1978,-2.26871 3.40305,-5.81356 1.20525,-3.54485 1.20525,-8.29495 0,-8.86212 -4.04113,-13.54133 -3.97023,-4.7501 -10.28006,-4.7501 -6.38073,0 -10.42186,4.7501 -4.04113,4.67921 -4.04113,13.54133 0,8.79123 4.04113,13.47043 4.04113,4.6792 10.42186,4.6792 2.12691,0 3.97023,-0.56717 z m 48.4227,17.72425 q -5.95535,0 -9.64199,-3.82844 -3.61575,-3.82843 -3.61575,-10.77634 v -24.60126 h 9.00392 v 23.25422 q 0,3.82844 1.98512,6.09714 2.05601,2.19781 5.60086,2.19781 3.61575,0 5.88445,-2.3396 2.3396,-2.33961 2.3396,-6.52253 v -22.68704 h 9.07482 v 38.70976 h -8.57854 l -0.0709,-7.72777 q -3.40306,8.22405 -11.9816,8.22405 z m 30.1312,-0.49628 v -38.70976 h 9.00392 v 38.70976 z m 4.53741,-44.16883 q -2.19781,0 -3.75755,-1.41794 -1.48883,-1.48884 -1.48883,-3.54485 0,-2.05601 1.48883,-3.47395 1.55974,-1.41794 3.75755,-1.41794 2.1978,0 3.68664,1.41794 1.55973,1.41794 1.55973,3.47395 0,2.05601 -1.55973,3.54485 -1.48884,1.41794 -3.68664,1.41794 z m 30.84013,44.9487 q -5.60086,0 -9.78379,-2.48139 -4.18292,-2.5523 -6.45163,-7.01881 -2.2687,-4.46651 -2.2687,-10.42186 0,-6.02624 2.2687,-10.49275 2.26871,-4.53741 6.45163,-7.01881 4.18293,-2.55229 9.78379,-2.55229 6.52252,0 10.98903,3.26126 4.46652,3.26127 5.74266,8.93303 l -8.43674,1.77242 q -0.70897,-3.04857 -2.83588,-4.821 -2.12691,-1.84332 -5.38817,-1.84332 -4.67921,0 -7.01881,3.68665 -2.3396,3.61574 -2.3396,9.00392 0,3.61574 0.99256,6.52252 1.06345,2.83588 3.11947,4.53741 2.12691,1.63063 5.24638,1.63063 3.33215,0 5.45906,-1.84332 2.12691,-1.91422 2.83588,-5.03369 l 8.43675,1.77243 q -1.27615,5.74265 -5.81356,9.07481 -4.46651,3.33216 -10.98903,3.33216 z m 24.53037,-0.77987 v -51.61301 h 9.00392 v 28.50059 h 0.70897 l 13.89581,-15.59734 h 10.56366 l -14.95927,16.73169 15.88093,21.97807 h -10.77635 l -11.98159,-16.5899 -3.33216,3.54486 v 13.04504 z m 76.78153,0.77987 q -9.00392,0 -14.39209,-4.11203 -5.31728,-4.18292 -5.67176,-11.8398 h 9.14571 q 0.28359,4.11203 3.33216,6.09715 3.11947,1.98511 7.51508,1.98511 4.53741,0 7.44419,-2.05601 2.90677,-2.05601 2.90677,-5.38817 0,-3.04857 -2.62319,-4.53741 -2.55229,-1.55973 -6.73521,-2.62319 l -5.81356,-1.55973 q -6.52252,-1.63063 -10.13827,-4.96279 -3.61574,-3.40306 -3.61574,-8.86213 0,-4.53741 2.48139,-7.94046 2.4814,-3.47396 6.73522,-5.31728 4.25382,-1.91422 9.64199,-1.91422 5.52997,0 9.64199,1.91422 4.11203,1.84332 6.45163,5.24638 2.4105,3.33216 2.48139,7.65688 h -8.93302 q -0.35448,-3.33216 -2.97767,-5.10459 -2.62319,-1.84332 -6.80612,-1.84332 -4.32471,0 -6.877,1.91422 -2.4814,1.91422 -2.4814,4.82099 0,2.19781 1.34704,3.61575 1.34705,1.34705 3.33216,2.19781 2.05602,0.77987 4.11203,1.27615 l 4.821,1.27614 q 3.82843,0.92166 7.30239,2.69409 3.47395,1.70153 5.67176,4.6792 2.1978,2.90678 2.1978,7.44418 0,4.53741 -2.3396,8.01137 -2.2687,3.40305 -6.66432,5.31727 -4.32471,1.91422 -10.49275,1.91422 z m 27.15354,13.04505 2.12691,-7.0188 1.06345,0.28358 q 3.04857,0.77987 5.10459,-0.21269 2.05601,-0.99256 2.69408,-4.25382 l 0.56718,-2.48139 -14.60478,-38.85156 h 9.64199 l 7.0188,21.05641 q 0.85077,2.55229 1.48884,5.03369 0.63807,2.48139 1.20525,5.03368 0.63807,-2.55229 1.27614,-5.03368 0.70897,-2.5523 1.55974,-5.03369 l 7.30239,-21.05641 h 9.5002 l -16.5899,43.67255 q -1.77243,4.67921 -4.96279,7.2315 -3.11947,2.55229 -8.36585,2.55229 -1.91422,0 -3.54485,-0.28359 -1.55973,-0.28359 -2.48139,-0.63807 z m 56.71754,-13.04505 q -6.66432,0 -11.05993,-2.83588 -4.32472,-2.83588 -5.31728,-8.15315 l 8.43674,-1.55974 q 1.48884,5.67176 8.08226,5.67176 3.33216,0 5.24638,-1.34704 1.98512,-1.34704 1.98512,-3.26126 0,-3.33216 -5.17548,-4.46652 l -6.66432,-1.41794 q -10.84724,-2.3396 -10.84724,-10.84724 0,-3.61574 1.98511,-6.23893 1.98512,-2.62319 5.45907,-4.04113 3.54485,-1.48884 8.15316,-1.48884 6.59342,0 10.42186,2.76498 3.82843,2.69409 5.03368,7.2315 l -8.08225,1.55973 q -0.63808,-1.98511 -2.4105,-3.40305 -1.70153,-1.41794 -4.821,-1.41794 -2.83588,0 -4.821,1.27614 -1.91421,1.27615 -1.91421,3.19037 0,1.70153 1.27614,2.83588 1.27615,1.06345 4.25382,1.70153 l 6.52253,1.41794 q 10.84724,2.3396 10.84724,10.42186 0,3.68664 -2.12691,6.52252 -2.05602,2.76498 -5.81356,4.32472 -3.75754,1.55973 -8.64943,1.55973 z m 42.18372,-39.48963 v 7.0897 h -7.51509 v 20.70193 q 0,2.12691 0.85077,3.11946 0.92166,0.99256 3.04857,0.99256 0.56717,0 1.55973,-0.14179 1.06346,-0.21269 1.70153,-0.35449 l 1.41794,7.01881 q -1.48884,0.42538 -3.04857,0.56717 -1.55973,0.21269 -2.97767,0.21269 -5.60087,0 -8.57854,-2.76498 -2.97768,-2.76498 -2.97768,-7.86957 v -21.48179 h -5.45906 v -7.0897 h 5.45906 v -9.21661 h 9.00392 v 9.21661 z m 23.53782,39.48963 q -5.88445,0 -10.13827,-2.4105 -4.18293,-2.48139 -6.45163,-6.9479 -2.26871,-4.46651 -2.26871,-10.56366 0,-5.95535 2.19781,-10.42186 2.26871,-4.5374 6.38073,-7.0897 4.11203,-2.55229 9.64199,-2.55229 4.7501,0 8.72034,2.05601 4.04112,2.05602 6.52252,6.38073 2.48139,4.32472 2.48139,11.13083 v 2.83588 H 831.1183 q 0.1418,5.10459 2.83588,7.86957 2.76499,2.69409 7.0897,2.69409 2.97768,0 5.10459,-1.27615 2.12691,-1.34704 3.04857,-3.75754 l 8.29495,1.70153 q -1.41794,4.6792 -5.81356,7.51508 -4.32471,2.83588 -10.70544,2.83588 z m -9.85469,-23.7505 h 18.14964 q -0.42539,-4.11202 -2.69409,-6.59342 -2.19781,-2.55229 -6.16804,-2.55229 -4.11203,0 -6.52252,2.69409 -2.4105,2.62319 -2.76499,6.45162 z m 34.59773,22.97063 v -38.70976 h 8.50764 l 0.21269,7.37329 q 1.55973,-4.11203 4.53741,-6.02625 2.97767,-1.98511 6.45163,-1.98511 7.44418,0 9.92558,8.43674 1.55973,-4.18292 4.89189,-6.30983 3.40305,-2.12691 7.51508,-2.12691 5.17548,0 8.72033,3.40305 3.54485,3.40306 3.54485,9.85469 v 26.09009 h -9.00392 v -24.74305 q 0,-3.54485 -1.98511,-5.17548 -1.98512,-1.70153 -4.7501,-1.70153 -3.26126,0 -5.17548,2.05601 -1.84333,1.98512 -1.84333,5.24638 v 24.31767 h -8.79122 v -25.09754 q 0,-2.97767 -1.84333,-4.75009 -1.84332,-1.77243 -4.6792,-1.77243 -2.97767,0 -5.10458,2.05601 -2.12691,1.98512 -2.12691,5.88445 v 23.6796 z"
       id="text317"
       aria-label="Quick System&#10;" />
    <path
       style="font-weight:600;font-size:70.897px;line-height:0;font-family:'Sarasa Gothic SC';-inkscape-font-specification:'Sarasa Gothic SC Semi-Bold';text-align:end;letter-spacing:0px;word-spacing:0px;text-anchor:end;fill:#333839;stroke-width:4.43103"
       d="m 458.62549,967.57155 q -5.60087,0 -9.78379,-2.48139 -4.18292,-2.55229 -6.45163,-7.0188 -2.2687,-4.46652 -2.2687,-10.42186 0,-6.02625 2.2687,-10.49276 2.26871,-4.53741 6.45163,-7.0188 4.18292,-2.5523 9.78379,-2.5523 5.67176,0 9.78378,2.5523 4.18293,2.48139 6.45163,7.0188 2.2687,4.46651 2.2687,10.49276 0,5.95534 -2.2687,10.42186 -2.2687,4.46651 -6.45163,7.0188 -4.11202,2.48139 -9.78378,2.48139 z m 0,-7.30239 q 3.19036,0 5.24637,-1.70153 2.05602,-1.70152 3.11947,-4.5374 1.06346,-2.90678 1.06346,-6.45163 0,-3.54485 -1.06346,-6.38073 -1.06345,-2.90678 -3.11947,-4.60831 -2.05601,-1.70152 -5.24637,-1.70152 -3.11947,0 -5.17548,1.70152 -2.05602,1.70153 -3.11947,4.60831 -0.99256,2.83588 -0.99256,6.38073 0,3.54485 0.99256,6.45163 1.06345,2.83588 3.11947,4.5374 2.05601,1.70153 5.17548,1.70153 z m 35.37755,-16.16451 v 22.68704 h -9.00392 v -38.70977 h 8.57854 l 0.0709,7.72778 q 3.47396,-8.22406 11.9816,-8.22406 5.95535,0 9.57109,3.82844 3.61575,3.82844 3.61575,10.77635 v 24.60126 h -9.00392 v -23.25422 q 0,-3.82844 -1.98511,-6.02625 -1.98512,-2.2687 -5.52997,-2.2687 -3.61575,0 -5.95535,2.3396 -2.3396,2.3396 -2.3396,6.52253 z m 74.65457,23.39601 q -6.73522,0 -12.12339,-3.11947 -5.31727,-3.19037 -8.43674,-9.07482 -3.04857,-5.95535 -3.04857,-14.2503 0,-8.36584 3.11947,-14.25029 3.11946,-5.95535 8.43674,-9.07482 5.31727,-3.19036 12.05249,-3.19036 5.67176,0 10.28006,2.12691 4.60831,2.05601 7.58598,6.09714 3.04857,3.97023 3.89934,9.64199 h -9.28751 q -0.92166,-4.6083 -4.32472,-7.0897 -3.33215,-2.55229 -8.01136,-2.55229 -6.30983,0 -10.42186,4.7501 -4.04113,4.7501 -4.04113,13.54132 0,8.86213 4.04113,13.54133 4.11203,4.60831 10.42186,4.60831 4.60831,0 8.01136,-2.4814 3.40306,-2.55229 4.32472,-7.0897 h 9.28751 q -0.70897,4.96279 -3.54485,9.00392 -2.83588,4.04113 -7.51508,6.45163 -4.60831,2.4105 -10.70545,2.4105 z m 38.85152,-23.39601 v 22.68704 h -9.00392 v -51.61302 h 8.86212 v 20.06385 q 3.54485,-7.65688 11.76891,-7.65688 5.95534,0 9.57109,3.82844 3.68665,3.82844 3.68665,10.77635 v 24.60126 h -9.07482 v -23.25422 q 0,-3.82844 -1.98512,-6.02625 -1.98511,-2.2687 -5.52996,-2.2687 -3.61575,0 -5.95535,2.3396 -2.3396,2.3396 -2.3396,6.52253 z m 34.38501,22.68704 v -38.70977 h 9.00392 v 38.70977 z m 4.53741,-44.16884 q -2.19781,0 -3.75754,-1.41794 -1.48884,-1.48883 -1.48884,-3.54485 0,-2.05601 1.48884,-3.47395 1.55973,-1.41794 3.75754,-1.41794 2.19781,0 3.68664,1.41794 1.55974,1.41794 1.55974,3.47395 0,2.05602 -1.55974,3.54485 -1.48883,1.41794 -3.68664,1.41794 z m 14.03754,58.63183 v -53.17276 h 8.79123 v 6.38073 h 0.63807 q 0.63808,-1.34704 1.91422,-2.90677 1.27615,-1.63063 3.47395,-2.76499 2.26871,-1.20525 5.67177,-1.20525 4.46651,0 8.08225,2.33961 3.61575,2.2687 5.74266,6.73521 2.12691,4.39561 2.12691,10.84724 0,6.38073 -2.12691,10.84724 -2.05601,4.46651 -5.67176,6.80612 -3.61575,2.3396 -8.22405,2.3396 -3.26126,0 -5.45907,-1.13436 -2.19781,-1.13435 -3.54485,-2.69408 -1.34704,-1.63063 -1.98512,-2.97768 h -0.42538 v 20.56014 z m 18.00784,-21.19821 q 4.53741,0 6.87701,-3.54485 2.3396,-3.61575 2.3396,-9.00392 0,-5.45907 -2.3396,-8.93302 -2.2687,-3.54485 -6.87701,-3.54485 -4.46651,0 -6.80611,3.40306 -2.3396,3.40305 -2.3396,9.07481 0,5.60087 2.3396,9.07482 2.4105,3.47395 6.80611,3.47395 z m 62.67306,7.51508 q -9.00392,0 -14.39209,-4.11202 -5.31728,-4.18293 -5.67177,-11.8398 h 9.14572 q 0.28359,4.11202 3.33216,6.09714 3.11947,1.98512 7.51508,1.98512 4.53741,0 7.44419,-2.05602 2.90677,-2.05601 2.90677,-5.38817 0,-3.04857 -2.62319,-4.53741 -2.55229,-1.55973 -6.73521,-2.62319 l -5.81356,-1.55973 q -6.52252,-1.63063 -10.13827,-4.96279 -3.61575,-3.40306 -3.61575,-8.86213 0,-4.5374 2.4814,-7.94046 2.4814,-3.47395 6.73522,-5.31728 4.25382,-1.91421 9.64199,-1.91421 5.52996,0 9.64199,1.91421 4.11203,1.84333 6.45163,5.24638 2.4105,3.33216 2.48139,7.65688 h -8.93302 q -0.35448,-3.33216 -2.97767,-5.10458 -2.62319,-1.84333 -6.80612,-1.84333 -4.32471,0 -6.87701,1.91422 -2.48139,1.91422 -2.48139,4.821 0,2.19781 1.34704,3.61575 1.34705,1.34704 3.33216,2.1978 2.05601,0.77987 4.11203,1.27615 l 4.82099,1.27614 q 3.82844,0.92167 7.3024,2.69409 3.47395,1.70153 5.67176,4.6792 2.1978,2.90678 2.1978,7.44419 0,4.53741 -2.3396,8.01136 -2.2687,3.40306 -6.66432,5.31727 -4.32471,1.91422 -10.49275,1.91422 z m 45.44493,-39.48963 v 7.0897 h -7.51508 v 20.70193 q 0,2.12691 0.85076,3.11947 0.92166,0.99255 3.04857,0.99255 0.56718,0 1.55974,-0.14179 1.06345,-0.21269 1.70153,-0.35448 l 1.41794,7.0188 q -1.48884,0.42538 -3.04857,0.56718 -1.55974,0.21269 -2.97768,0.21269 -5.60086,0 -8.57854,-2.76499 -2.97767,-2.76498 -2.97767,-7.86956 v -21.4818 h -5.45907 v -7.0897 h 5.45907 v -9.21661 h 9.00392 v 9.21661 z m 20.3475,39.20605 q -5.95535,0 -9.64199,-3.82844 -3.61575,-3.82844 -3.61575,-10.77635 v -24.60126 h 9.00392 v 23.25422 q 0,3.82844 1.98512,6.09714 2.05601,2.19781 5.60086,2.19781 3.61575,0 5.88445,-2.3396 2.3396,-2.3396 2.3396,-6.52253 v -22.68704 h 9.07482 v 38.70977 h -8.57854 l -0.0709,-7.72778 q -3.40306,8.22406 -11.9816,8.22406 z m 44.45237,0.21269 q -4.6083,0 -8.22405,-2.3396 -3.61575,-2.33961 -5.74266,-6.80612 -2.05601,-4.46651 -2.05601,-10.84724 0,-6.45163 2.12691,-10.84724 2.12691,-4.46651 5.74266,-6.73521 3.61575,-2.33961 8.08226,-2.33961 3.47395,0 5.67176,1.20525 2.1978,1.13436 3.47395,2.76499 1.27615,1.55973 1.98512,2.90677 h 0.35448 v -19.28398 h 9.00392 v 51.61302 h -8.79123 v -6.09715 h -0.56717 q -0.70897,1.34705 -2.05602,2.97768 -1.34704,1.55973 -3.54485,2.69408 -2.1978,1.13436 -5.45907,1.13436 z m 2.4105,-7.44419 q 4.39562,0 6.80611,-3.47395 2.4105,-3.47395 2.4105,-9.07482 0,-5.67176 -2.4105,-9.07481 -2.3396,-3.40306 -6.80611,-3.40306 -4.53741,0 -6.87701,3.54485 -2.3396,3.47395 -2.3396,8.93302 0,5.38817 2.3396,9.00392 2.3396,3.54485 6.87701,3.54485 z m 27.50809,6.73522 v -38.70977 h 9.00391 v 38.70977 z m 4.5374,-44.16884 q -2.1978,0 -3.75754,-1.41794 -1.48883,-1.48883 -1.48883,-3.54485 0,-2.05601 1.48883,-3.47395 1.55974,-1.41794 3.75754,-1.41794 2.19781,0 3.68665,1.41794 1.55973,1.41794 1.55973,3.47395 0,2.05602 -1.55973,3.54485 -1.48884,1.41794 -3.68665,1.41794 z m 30.84014,44.9487 q -5.60087,0 -9.78379,-2.48139 -4.18292,-2.55229 -6.45163,-7.0188 -2.2687,-4.46652 -2.2687,-10.42186 0,-6.02625 2.2687,-10.49276 2.26871,-4.53741 6.45163,-7.0188 4.18292,-2.5523 9.78379,-2.5523 5.67176,0 9.78378,2.5523 4.18293,2.48139 6.45163,7.0188 2.2687,4.46651 2.2687,10.49276 0,5.95534 -2.2687,10.42186 -2.2687,4.46651 -6.45163,7.0188 -4.11202,2.48139 -9.78378,2.48139 z m 0,-7.30239 q 3.19036,0 5.24637,-1.70153 2.05602,-1.70152 3.11947,-4.5374 1.06346,-2.90678 1.06346,-6.45163 0,-3.54485 -1.06346,-6.38073 -1.06345,-2.90678 -3.11947,-4.60831 -2.05601,-1.70152 -5.24637,-1.70152 -3.11947,0 -5.17549,1.70152 -2.05601,1.70153 -3.11946,4.60831 -0.99256,2.83588 -0.99256,6.38073 0,3.54485 0.99256,6.45163 1.06345,2.83588 3.11946,4.5374 2.05602,1.70153 5.17549,1.70153 z"
       id="text320"
       aria-label="on Chip Studio" />
  </g>
</svg>
